<svg width="48" height="48" viewBox="0 0 48 48" fill="none" xmlns="http://www.w3.org/2000/svg">
<g clip-path="url(#clip0_1313_174)">
<path d="M28.114 34.2461L21.074 31.4291C20.7475 31.2987 20.4612 31.0845 20.2438 30.8082C20.0265 30.5318 19.8858 30.2031 19.836 29.8551L19.324 26.2701C20.7183 25.634 21.9003 24.6105 22.7294 23.3216C23.5584 22.0326 23.9994 20.5326 24 19.0001V13.0731C23.9992 11.9159 23.5392 10.8064 22.7209 9.98812C21.9027 9.16988 20.7932 8.70985 19.636 8.70906L18.507 6.45006C18.4139 6.27459 18.2618 6.13763 18.0776 6.06335C17.8933 5.98907 17.6888 5.98224 17.5 6.04406L12.112 7.96706C10.9437 8.44883 9.9366 9.25317 9.20845 10.2861C8.4803 11.319 8.06116 12.5378 8 13.8001V19.0001C8.00055 20.5326 8.44161 22.0326 9.27064 23.3216C10.0997 24.6105 11.2817 25.634 12.676 26.2701L12.164 29.8551C12.1142 30.2031 11.9735 30.5318 11.7562 30.8082C11.5388 31.0845 11.2525 31.2987 10.926 31.4291L3.886 34.2461C3.32934 34.4687 2.85216 34.853 2.51599 35.3494C2.17982 35.8458 2.0001 36.4315 2 37.0311V42.0001H30V37.0311C29.9999 36.4315 29.8202 35.8458 29.484 35.3494C29.1478 34.853 28.6707 34.4687 28.114 34.2461Z" stroke="black" stroke-width="4" stroke-miterlimit="10" stroke-linecap="square"/>
<path d="M35.9993 42.0001H45.9993V35.1001C45.9992 34.4843 45.8097 33.8835 45.4563 33.3791C45.103 32.8748 44.603 32.4914 44.0243 32.2811L36.1243 29.4091C35.7828 29.2855 35.4813 29.0713 35.2523 28.7895C35.0233 28.5076 34.8753 28.1687 34.8243 27.8091L34.3183 24.2661C35.7129 23.631 36.8956 22.6085 37.7255 21.3202C38.5554 20.032 38.9976 18.5324 38.9993 17.0001V11.0731C38.9985 9.9159 38.5385 8.80636 37.7203 7.98812C36.902 7.16988 35.7925 6.70985 34.6353 6.70906L33.5063 4.45006C33.4132 4.27459 33.2611 4.13763 33.0769 4.06335C32.8927 3.98907 32.6881 3.98224 32.4993 4.04406L27.1113 5.96706" stroke="black" stroke-width="4" stroke-miterlimit="10" stroke-linecap="square"/>
</g>
<defs>
<clipPath id="clip0_1313_174">
<rect width="48" height="48" fill="white"/>
</clipPath>
</defs>
</svg>
