<svg width="48" height="48" viewBox="0 0 48 48" fill="none" xmlns="http://www.w3.org/2000/svg">
<g clip-path="url(#clip0_1313_175)">
<g clip-path="url(#clip1_1313_175)">
<path d="M29.7695 6.08594L41.8665 18.1819" stroke="white" stroke-width="4" stroke-miterlimit="10"/>
<path d="M24.831 8.96496C18.989 6.44896 11.5 7.99996 6 15L12.734 21.736" stroke="white" stroke-width="4" stroke-miterlimit="10"/>
<path d="M39.0347 23.1689C41.5507 29.0109 39.9997 36.4999 32.9997 41.9999L26.2637 35.2659" stroke="white" stroke-width="4" stroke-miterlimit="10"/>
<path d="M21 38L10 27C10 27 18.894 3.414 46 2C44.468 28.988 21 38 21 38Z" stroke="white" stroke-width="4" stroke-miterlimit="10" stroke-linecap="square"/>
<path d="M27 25C29.2091 25 31 23.2091 31 21C31 18.7909 29.2091 17 27 17C24.7909 17 23 18.7909 23 21C23 23.2091 24.7909 25 27 25Z" stroke="white" stroke-width="4" stroke-miterlimit="10" stroke-linecap="square"/>
<path d="M4.464 36.4639C5.40181 35.5261 6.67374 34.9993 8 34.9993C9.32626 34.9993 10.5982 35.5261 11.536 36.4639C12.4738 37.4017 13.0007 38.6737 13.0007 39.9999C13.0007 41.3262 12.4738 42.5981 11.536 43.5359C9.583 45.4879 2 45.9999 2 45.9999C2 45.9999 2.512 38.4169 4.464 36.4639Z" stroke="white" stroke-width="4" stroke-miterlimit="10" stroke-linecap="square"/>
</g>
</g>
<defs>
<clipPath id="clip0_1313_175">
<rect width="48" height="48" fill="white"/>
</clipPath>
<clipPath id="clip1_1313_175">
<rect width="48" height="48" fill="white"/>
</clipPath>
</defs>
</svg>
