<svg width="36" height="24" viewBox="0 0 36 24" fill="none" xmlns="http://www.w3.org/2000/svg">
<path d="M28.1021 5.53C27.5221 4.625 26.1321 3.703 22.8021 4.448C22.5481 4.505 22.2871 4.573 22.0231 4.647C21.1951 1.912 19.8431 0 17.9961 0C16.2901 0 14.8831 1.652 13.9741 4.656C11.3531 3.918 8.92509 3.912 7.89109 5.53C7.31109 6.436 7.05409 8.085 9.12609 10.796C9.43109 11.195 9.77909 11.597 10.1531 12C9.77909 12.403 9.43109 12.805 9.12609 13.205C7.05409 15.916 7.31109 17.565 7.89109 18.471C8.46909 19.374 9.53209 19.829 10.9941 19.829C11.8531 19.829 12.8531 19.668 13.9711 19.353C14.7591 21.97 16.0631 24 17.9961 24C19.8431 24 21.1951 22.088 22.0241 19.352C22.2881 19.426 22.5481 19.494 22.8031 19.551C24.6911 19.974 27.0641 20.095 28.1021 18.469C29.0951 16.919 28.2691 14.648 25.8161 12.027C27.9211 9.781 29.2451 7.315 28.1021 5.53ZM26.4181 6.608C26.8591 7.297 25.8251 9.468 22.9961 11.982C22.9951 10.13 22.8281 8.272 22.5001 6.591C23.4291 6.326 25.8991 5.799 26.4181 6.608ZM13.0141 12C15.1611 10.098 17.9391 8.348 20.5841 7.263C21.1171 10.157 21.1491 13.666 20.5841 16.737C17.9411 15.653 15.1631 13.903 13.0141 12ZM17.9961 2C18.6521 2 19.4921 3.21 20.1161 5.293C19.4231 5.567 18.7121 5.891 17.9961 6.252C17.3091 5.907 16.5921 5.584 15.8661 5.299C16.5821 2.907 17.5041 2 17.9961 2ZM9.57509 6.608C10.0051 5.934 12.4021 5.951 15.8511 7.451C14.2801 8.412 12.8871 9.432 11.5821 10.601C10.8401 9.795 8.99609 7.51 9.57509 6.608ZM9.57409 17.392C8.99709 16.49 10.8381 14.207 11.5821 13.399C12.0621 13.829 12.5741 14.253 13.1131 14.668C13.1931 15.575 13.3181 16.5 13.4951 17.403C11.0951 18.09 9.83909 17.803 9.57409 17.392ZM17.9961 22C17.1781 22 15.9051 19.958 15.3141 16.219C16.9181 17.245 18.5591 18.092 20.1161 18.707C19.4921 20.79 18.6521 22 17.9961 22ZM26.4171 17.392C25.9011 18.204 23.4261 17.673 22.5001 17.41C22.6701 16.537 22.7921 15.615 22.8751 14.673C23.3871 14.278 23.8951 13.859 24.3851 13.42C26.3501 15.532 26.7091 16.937 26.4171 17.392Z" fill="white"/>
<path d="M17.9961 13C18.5484 13 18.9961 12.5523 18.9961 12C18.9961 11.4477 18.5484 11 17.9961 11C17.4438 11 16.9961 11.4477 16.9961 12C16.9961 12.5523 17.4438 13 17.9961 13Z" fill="white"/>
</svg>
