<svg width="36" height="24" viewBox="0 0 36 24" fill="none" xmlns="http://www.w3.org/2000/svg">
<g clip-path="url(#clip0_1235_1590)">
<path d="M22.5362 13.4099C22.3476 13.2277 22.095 13.1269 21.8328 13.1292C21.5706 13.1315 21.3198 13.2366 21.1344 13.422C20.949 13.6075 20.8438 13.8583 20.8415 14.1205C20.8392 14.3827 20.94 14.6353 21.1222 14.8239L23.9422 17.6439L22.6252 18.9609L19.8052 16.1409C19.7129 16.0454 19.6026 15.9692 19.4806 15.9168C19.3586 15.8644 19.2274 15.8368 19.0946 15.8356C18.9618 15.8345 18.8301 15.8598 18.7072 15.91C18.5843 15.9603 18.4727 16.0346 18.3788 16.1285C18.2849 16.2224 18.2106 16.334 18.1604 16.4569C18.1101 16.5798 18.0848 16.7115 18.0859 16.8443C18.0871 16.977 18.1147 17.1083 18.1671 17.2303C18.2195 17.3523 18.2957 17.4626 18.3912 17.5549L20.9482 20.1129C20.2273 20.4135 19.4465 20.5425 18.6672 20.4899C18.5979 21.1962 18.3193 21.8658 17.8672 22.4129C18.2422 22.4766 18.6218 22.51 19.0022 22.5129C19.9214 22.5143 20.8318 22.3341 21.6813 21.9829C22.5307 21.6316 23.3024 21.1161 23.9522 20.4659L26.0602 18.3299C26.2459 18.1417 26.3496 17.8876 26.3485 17.6231C26.3474 17.3587 26.2415 17.1055 26.0542 16.9189L22.5362 13.4099Z" fill="white"/>
<path d="M7.82102 12.8558C8.11886 12.5649 8.46502 12.3281 8.84402 12.1558C8.24943 11.1608 7.95307 10.0161 7.99016 8.85756C8.02726 7.69907 8.39626 6.57559 9.05328 5.62071C9.7103 4.66582 10.6277 3.9197 11.6964 3.47103C12.7652 3.02237 13.9403 2.89005 15.082 3.0898L15.515 2.6568C15.9384 2.23253 16.4023 1.85071 16.9 1.5168C15.3063 0.918409 13.5641 0.83948 11.9228 1.29131C10.2815 1.74313 8.82511 2.70256 7.76215 4.03229C6.69919 5.36202 6.08408 6.99391 6.00484 8.69444C5.92561 10.395 6.38631 12.077 7.32102 13.4998C7.46296 13.267 7.63068 13.051 7.82102 12.8558Z" fill="white"/>
<path d="M16.9391 18.2811L12.2213 13.5633C11.2016 12.5436 9.5484 12.5436 8.52874 13.5633C7.50909 14.583 7.50909 16.2361 8.52874 17.2558L13.2466 21.9736C14.2662 22.9933 15.9194 22.9933 16.9391 21.9736C17.9587 20.954 17.9587 19.3008 16.9391 18.2811Z" fill="white"/>
<path d="M27.6369 3.36388C26.1233 1.85031 24.0705 1 21.9299 1C19.7894 1 17.7365 1.85031 16.2229 3.36388L11.5859 7.99988L12.2939 8.70688C12.8798 9.29128 13.6735 9.61947 14.5009 9.61947C15.3284 9.61947 16.1221 9.29128 16.7079 8.70688L18.5009 6.91588L26.9249 15.4919L27.6389 14.7779C29.1525 13.2643 30.0028 11.2114 30.0028 9.07088C30.0028 6.93035 29.1525 4.87748 27.6389 3.36388H27.6369Z" fill="white"/>
</g>
<defs>
<clipPath id="clip0_1235_1590">
<rect width="24" height="24" fill="white" transform="translate(6)"/>
</clipPath>
</defs>
</svg>
