<svg width="36" height="24" viewBox="0 0 36 24" fill="none" xmlns="http://www.w3.org/2000/svg">
<path d="M20 10C20 12.408 21.564 15 25 15C28.436 15 30 12.408 30 10C30 9.792 29.935 9.588 29.814 9.419L24.823 2.432C24.719 2.283 24.574 2.159 24.394 2.081C24.259 2.022 24.125 2.007 23.978 2H12.022C11.891 2.003 11.742 2.022 11.606 2.081C11.426 2.158 11.28 2.282 11.177 2.432L6.186 9.419C6.065 9.588 6 9.792 6 10C6 12.408 7.564 15 11 15C14.436 15 16 12.408 16 10C16 9.864 15.973 9.73 15.919 9.606L13.517 4H17V21H11C10.448 21 10 21.447 10 22C10 22.553 10.448 23 11 23H25C25.552 23 26 22.553 26 22C26 21.447 25.552 21 25 21H19V4H22.483L20.081 9.606C20.027 9.73 20 9.864 20 10ZM13.912 10H8.229L11.78 5.027L13.912 10ZM24.219 5.027L27.771 10H22.088L24.219 5.027Z" fill="white"/>
</svg>
