<svg width="36" height="24" viewBox="0 0 36 24" fill="none" xmlns="http://www.w3.org/2000/svg">
<g clip-path="url(#clip0_1235_1466)">
<path d="M29 10H23.351L19 6.519V4H23V0H18C17.448 0 17 0.448 17 1V6.519L12.649 10H7C6.447 10 6 10.448 6 11V23C6 23.552 6.447 24 7 24H16V18H20V24H29C29.553 24 30 23.552 30 23V11C30 10.448 29.553 10 29 10ZM13 17H9V15H13V17ZM20 14H16V12H20V14ZM27 17H23V15H27V17Z" fill="white"/>
</g>
<defs>
<clipPath id="clip0_1235_1466">
<rect width="24" height="24" fill="white" transform="translate(6)"/>
</clipPath>
</defs>
</svg>
