<svg width="36" height="24" viewBox="0 0 36 24" fill="none" xmlns="http://www.w3.org/2000/svg">
<g clip-path="url(#clip0_1235_1600)">
<path d="M29 15H26V22H22V15H20V22H16V15H14V22H10V15H7C6.73478 15 6.48043 15.1054 6.29289 15.2929C6.10536 15.4804 6 15.7348 6 16V23C6 23.2652 6.10536 23.5196 6.29289 23.7071C6.48043 23.8946 6.73478 24 7 24H29C29.2652 24 29.5196 23.8946 29.7071 23.7071C29.8946 23.5196 30 23.2652 30 23V16C30 15.7348 29.8946 15.4804 29.7071 15.2929C29.5196 15.1054 29.2652 15 29 15Z" fill="white"/>
<path d="M9 13H27C27.2652 13 27.5196 12.8946 27.7071 12.7071C27.8946 12.5196 28 12.2652 28 12V10C28 9.82173 27.9524 9.64669 27.862 9.49302C27.7716 9.33936 27.6418 9.21264 27.486 9.126L19 4.412V0.5C19 0.367392 18.9473 0.240215 18.8536 0.146447C18.7598 0.0526784 18.6326 0 18.5 0L17.5 0C17.3674 0 17.2402 0.0526784 17.1464 0.146447C17.0527 0.240215 17 0.367392 17 0.5V4.412L8.514 9.126C8.3582 9.21264 8.22839 9.33936 8.13802 9.49302C8.04764 9.64669 7.99999 9.82173 8 10V12C8 12.2652 8.10536 12.5196 8.29289 12.7071C8.48043 12.8946 8.73478 13 9 13Z" fill="white"/>
<path d="M23.5 0H20.5C20.2239 0 20 0.223858 20 0.5V2.5C20 2.77614 20.2239 3 20.5 3H23.5C23.7761 3 24 2.77614 24 2.5V0.5C24 0.223858 23.7761 0 23.5 0Z" fill="white"/>
</g>
<defs>
<clipPath id="clip0_1235_1600">
<rect width="24" height="24" fill="white" transform="translate(6)"/>
</clipPath>
</defs>
</svg>
