<svg width="36" height="24" viewBox="0 0 36 24" fill="none" xmlns="http://www.w3.org/2000/svg">
<path d="M24 8C21.1 8 18 10.2 18 14C18 17.4 22.8 22.3 23.3 22.8C23.5 23 23.8 23.1 24 23.1C24.2 23.1 24.5 23 24.7 22.8C25.2 22.3 30 17.4 30 14C30 10.2 26.9 8 24 8ZM24 16C22.9 16 22 15.1 22 14C22 12.9 22.9 12 24 12C25.1 12 26 12.9 26 14C26 15.1 25.1 16 24 16Z" fill="white"/>
<path d="M12 10.9C12.6 11.6 13.5 12 14.5 12C15.2 12 15.8 11.8 16.4 11.4C17.5 8 20.8 6 24 6C25.2 6 26.4 6.3 27.5 6.8L23.9 0.5C23.7 0.2 23.4 0 23 0H11C10.6 0 10.3 0.2 10.1 0.5L6.1 7.5C6 7.7 6 7.8 6 8C6 10.4 7.4 12 9.5 12C10.5 12 11.4 11.6 12 10.9Z" fill="white"/>
<path d="M16 13.9999C16 13.8999 16 13.8999 16 13.7999C15.5 13.8999 15 13.9999 14.5 13.9999C13.6 13.9999 12.8 13.7999 12 13.3999C11.2 13.7999 10.4 13.9999 9.5 13.9999C9.3 13.9999 9.2 13.9999 9 13.9999V20.9999C9 21.5999 9.4 21.9999 10 21.9999H19.9C18.1 19.8999 16 16.6999 16 13.9999Z" fill="white"/>
</svg>
