<svg width="36" height="22" viewBox="0 0 36 22" fill="none" xmlns="http://www.w3.org/2000/svg">
<path d="M20.5 0V2C20.5 2.79565 20.1839 3.55871 19.6213 4.12132C19.0587 4.68393 18.2956 5 17.5 5V3C17.5 2.20435 17.8161 1.44129 18.3787 0.87868C18.9413 0.31607 19.7044 0 20.5 0Z" fill="white"/>
<path d="M25.533 7.01306C23.085 5.10406 20.333 6.47906 18 6.47906C15.667 6.47906 12.915 5.10006 10.467 7.01306C8.22203 8.76506 7.47703 14.0771 10.506 18.7731C13.412 23.2731 16.342 21.7511 18 21.7511C19.658 21.7511 22.588 23.2781 25.494 18.7731C28.523 14.0771 27.778 8.76506 25.533 7.01306Z" fill="white"/>
</svg>
