<svg width="36" height="24" viewBox="0 0 36 24" fill="none" xmlns="http://www.w3.org/2000/svg">
<path d="M27 0H9C8.448 0 8 0.448 8 1V23C8 23.552 8.448 24 9 24H27C27.552 24 28 23.552 28 23V1C28 0.448 27.552 0 27 0ZM24 19.5C24 19.776 23.776 20 23.5 20H12.5C12.224 20 12 19.776 12 19.5V18.5C12 18.224 12.224 18 12.5 18H23.5C23.776 18 24 18.224 24 18.5V19.5ZM24 14.5C24 14.776 23.776 15 23.5 15H12.5C12.224 15 12 14.776 12 14.5V13.5C12 13.224 12.224 13 12.5 13H23.5C23.776 13 24 13.224 24 13.5V14.5ZM24 9.5C24 9.776 23.776 10 23.5 10H12.5C12.224 10 12 9.776 12 9.5V4.5C12 4.224 12.224 4 12.5 4H23.5C23.776 4 24 4.224 24 4.5V9.5Z" fill="white"/>
</svg>
