<svg width="36" height="24" viewBox="0 0 36 24" fill="none" xmlns="http://www.w3.org/2000/svg">
<path d="M29 15H19V14C19 13.448 18.552 13 18 13C17.448 13 17 13.448 17 14V15H7V17H17V18C17 18.552 17.448 19 18 19C18.552 19 19 18.552 19 18V17H29V15Z" fill="white"/>
<path d="M29 23L21.568 8.771C21.836 8.235 22 7.639 22 7C22 5.142 20.72 3.589 19 3.142V1H17V3.142C15.28 3.589 14 5.142 14 7C14 7.639 14.164 8.235 14.432 8.771L7 23L12 20L16.762 10.784C17.636 11.071 18.36 11.072 19.238 10.784L24 20L29 23ZM16 7C16 5.897 16.897 5 18 5C19.103 5 20 5.897 20 7C20 8.103 19.103 9 18 9C16.897 9 16 8.103 16 7Z" fill="white"/>
</svg>
