<svg width="36" height="24" viewBox="0 0 36 24" fill="none" xmlns="http://www.w3.org/2000/svg">
<g clip-path="url(#clip0_1235_1215)">
<path d="M22 8H14V16H22V8Z" fill="white"/>
<path d="M30 9V7H27V5C27 4.46957 26.7893 3.96086 26.4142 3.58579C26.0391 3.21071 25.5304 3 25 3H23V0H21V3H19V0H17V3H15V0H13V3H11C10.4696 3 9.96086 3.21071 9.58579 3.58579C9.21071 3.96086 9 4.46957 9 5V7H6V9H9V11H6V13H9V15H6V17H9V19C9 19.5304 9.21071 20.0391 9.58579 20.4142C9.96086 20.7893 10.4696 21 11 21H13V24H15V21H17V24H19V21H21V24H23V21H25C25.5304 21 26.0391 20.7893 26.4142 20.4142C26.7893 20.0391 27 19.5304 27 19V17H30V15H27V13H30V11H27V9H30ZM24 18H12V6H24V18Z" fill="white"/>
</g>
<defs>
<clipPath id="clip0_1235_1215">
<rect width="24" height="24" fill="white" transform="translate(6)"/>
</clipPath>
</defs>
</svg>
