<svg width="25" height="25" viewBox="0 0 25 25" fill="none" xmlns="http://www.w3.org/2000/svg">
<path d="M15.0312 23.3936V15.3936H23.0312C23.5832 15.3936 24.0312 14.9456 24.0312 14.3936V10.3936C24.0312 9.84156 23.5832 9.39356 23.0312 9.39356H15.0312V1.39355C15.0312 0.841555 14.5832 0.393555 14.0312 0.393555H10.0312C9.47925 0.393555 9.03125 0.841555 9.03125 1.39355V9.39356H1.03125C0.479249 9.39356 0.0312486 9.84156 0.0312486 10.3936V14.3936C0.0312486 14.9456 0.479249 15.3936 1.03125 15.3936H9.03125V23.3936C9.03125 23.9456 9.47925 24.3936 10.0312 24.3936H14.0312C14.5832 24.3936 15.0312 23.9456 15.0312 23.3936Z" fill="black"/>
</svg>
