<svg width="20" height="20" viewBox="0 0 20 20" fill="none" xmlns="http://www.w3.org/2000/svg">
<path d="M16.5858 0.585939C17.3668 -0.19511 18.6329 -0.19511 19.4139 0.585939C20.195 1.36699 20.195 2.63302 19.4139 3.41406L3.41391 19.4141C2.63286 20.1951 1.36683 20.1951 0.585786 19.4141C-0.195262 18.633 -0.195262 17.367 0.585786 16.5859L16.5858 0.585939Z" fill="white"/>
<path d="M0.585786 0.585939C1.36683 -0.19511 2.63286 -0.19511 3.41391 0.585939L19.4139 16.5859C20.195 17.367 20.195 18.633 19.4139 19.4141C18.6329 20.1951 17.3668 20.1951 16.5858 19.4141L0.585786 3.41406C-0.195262 2.63302 -0.195262 1.36699 0.585786 0.585939Z" fill="white"/>
</svg>
