<svg width="48" height="48" viewBox="0 0 48 48" fill="none" xmlns="http://www.w3.org/2000/svg">
<path d="M45.9033 0H2.02184C0.898596 0 0 0.9 0 2.025V46.05C0 47.1 0.898596 48 2.02184 48H45.9782C47.1014 48 48 47.1 48 45.975V2.025C47.9251 0.9 47.0265 0 45.9033 0ZM14.2278 40.875H7.11388V18H14.2278V40.875ZM10.6334 14.85C8.3869 14.85 6.51482 12.975 6.51482 10.725C6.51482 8.475 8.3869 6.6 10.6334 6.6C12.8799 6.6 14.752 8.475 14.752 10.725C14.752 13.05 12.9548 14.85 10.6334 14.85ZM40.8112 40.875H33.6973V29.775C33.6973 27.15 33.6225 23.7 30.0281 23.7C26.3588 23.7 25.7598 26.625 25.7598 29.55V40.875H18.6459V18H25.4602V21.15H25.5351C26.5086 19.35 28.83 17.475 32.2746 17.475C39.4633 17.475 40.8112 22.2 40.8112 28.35V40.875Z" fill="white"/>
</svg>
