<svg width="121" height="44" viewBox="0 0 121 44" fill="none" xmlns="http://www.w3.org/2000/svg">
<path d="M8.59625 40.9174L6.43752 32.9815H6.41177L4.23125 40.9174H2.92016L0.5 31.4744H1.78336L3.63512 39.331H3.66087L5.77801 31.4744H7.14059L9.23001 39.331H9.25576L11.1749 31.4744H12.4305L9.90536 40.9174H8.59625ZM17.5223 40.4817C17.0114 40.8699 16.3677 41.064 15.5913 41.064C15.0447 41.064 14.5714 40.9748 14.1694 40.7986C13.7693 40.6223 13.4306 40.3767 13.1593 40.0579C12.888 39.739 12.68 39.3627 12.5434 38.9211C12.4067 38.4794 12.3295 38.0001 12.3117 37.4792C12.3117 36.9584 12.3909 36.4831 12.5493 36.0513C12.7078 35.6196 12.9315 35.2433 13.2167 34.9264C13.507 34.603 13.8635 34.346 14.262 34.1727C14.6604 33.9995 15.0916 33.914 15.526 33.9223C16.134 33.9223 16.639 34.047 17.0391 34.2986C17.4391 34.5501 17.762 34.8689 18.0056 35.2571C18.2472 35.6453 18.4155 36.0691 18.5086 36.5266C18.5997 36.9861 18.6373 37.4218 18.6195 37.8357H13.5019C13.494 38.1368 13.5277 38.42 13.6069 38.6893C13.6861 38.9587 13.8148 39.1963 13.9911 39.4023C14.1674 39.6103 14.3932 39.7766 14.6645 39.8994C14.9358 40.0222 15.2606 40.0856 15.631 40.0856C16.1063 40.0856 16.4984 39.9747 16.8014 39.7548C17.1044 39.535 17.3065 39.2003 17.4035 38.7488H18.5146C18.364 39.5172 18.0313 40.0955 17.5223 40.4817ZM17.251 36.0909C17.0576 35.6298 16.6926 35.262 16.233 35.065C15.9886 34.9623 15.7257 34.9111 15.4606 34.9145C15.1903 34.9099 14.922 34.9611 14.6724 35.065C14.4455 35.1613 14.2407 35.3028 14.0703 35.4809C13.904 35.6592 13.7713 35.8632 13.6742 36.0969C13.5772 36.3306 13.5198 36.5801 13.5019 36.8455H17.4312C17.4146 36.5857 17.3524 36.3306 17.251 36.0909ZM27.5496 35.271C27.2664 35.0333 26.8861 34.9145 26.4108 34.9145C26.058 34.9023 25.7079 34.9793 25.3928 35.1383C25.1195 35.2888 24.8997 35.4869 24.7392 35.7324C24.5788 35.978 24.458 36.2652 24.3867 36.586C24.3154 36.9069 24.2817 37.2396 24.2817 37.5862C24.2817 37.9031 24.3194 38.212 24.3927 38.5111C24.4659 38.8101 24.5848 39.0775 24.7432 39.3112C24.9016 39.5449 25.1096 39.7331 25.3651 39.8737C25.6206 40.0143 25.9256 40.0856 26.2781 40.0856C26.8326 40.0856 27.2683 39.939 27.5812 39.6499C27.8942 39.3607 28.0863 38.9468 28.1556 38.418H29.3063C29.1835 39.2657 28.8686 39.9172 28.3616 40.3767C27.8546 40.8342 27.1653 41.064 26.2919 41.064C25.7711 41.064 25.3116 40.9788 24.9096 40.8124C24.5075 40.6441 24.1728 40.4064 23.9035 40.0995C23.6341 39.7925 23.4321 39.4221 23.2955 38.9943C23.1588 38.5665 23.0915 38.0972 23.0915 37.5862C23.0915 37.0752 23.1568 36.5959 23.2895 36.1503C23.4222 35.7047 23.6222 35.3185 23.8916 34.9858C24.1609 34.6531 24.4976 34.3956 24.9016 34.2055C25.3076 34.0173 25.781 33.9223 26.3177 33.9223C26.7059 33.9223 27.0703 33.9678 27.4089 34.0609C27.7476 34.154 28.0486 34.2986 28.3081 34.4907C28.5695 34.6848 28.7834 34.9284 28.9498 35.2235C29.1161 35.5185 29.2231 35.8711 29.2666 36.2751H28.1041C28.0401 35.8866 27.8443 35.532 27.5496 35.271ZM31.5818 34.0807V35.5225H31.6076C31.8809 34.968 32.2176 34.556 32.6137 34.2926C33.0098 34.0292 33.5128 33.9044 34.1208 33.9223V35.1106C33.6713 35.1106 33.289 35.1739 32.9721 35.2967C32.6553 35.4195 32.3978 35.6017 32.2037 35.8394C32.0096 36.0771 31.867 36.3662 31.7799 36.7049C31.6865 37.0879 31.6419 37.4812 31.6472 37.8753V40.9174H30.5243V34.0807H31.5818ZM39.5711 40.4817C39.0602 40.8699 38.4145 41.064 37.6402 41.064C37.0936 41.064 36.6182 40.9748 36.2182 40.7986C35.8161 40.6223 35.4795 40.3767 35.2061 40.0579C34.9328 39.739 34.7269 39.3627 34.5922 38.9211C34.4575 38.4794 34.3763 38.0001 34.3605 37.4792C34.3605 36.9584 34.4397 36.4831 34.5981 36.0513C34.7566 35.6196 34.9784 35.2433 35.2656 34.9264C35.5556 34.6033 35.9118 34.3464 36.3099 34.1731C36.708 33.9999 37.1387 33.9143 37.5728 33.9223C38.1828 33.9223 38.6859 34.047 39.0879 34.2986C39.4899 34.5501 39.8108 34.8689 40.0524 35.2571C40.296 35.6453 40.4644 36.0691 40.5555 36.5266C40.6485 36.9861 40.6862 37.4218 40.6683 37.8357H35.5508C35.5408 38.1368 35.5765 38.42 35.6557 38.6893C35.7349 38.9587 35.8617 39.1963 36.0399 39.4023C36.2162 39.6103 36.44 39.7766 36.7133 39.8994C36.9866 40.0222 37.3074 40.0856 37.6798 40.0856C38.1551 40.0856 38.5453 39.9747 38.8483 39.7548C39.1513 39.535 39.3553 39.2003 39.4523 38.7488H40.5614C40.4129 39.5172 40.0821 40.0955 39.5711 40.4817ZM39.2998 36.0909C39.1064 35.6298 38.7414 35.262 38.2818 35.065C38.0368 34.962 37.7732 34.9108 37.5075 34.9145C37.2378 34.9102 36.9702 34.9614 36.7212 35.065C36.4944 35.1613 36.2895 35.3028 36.1192 35.4809C35.9508 35.6592 35.8181 35.8632 35.7231 36.0969C35.628 36.3306 35.5666 36.5801 35.5508 36.8455H39.4781C39.4614 36.5857 39.4012 36.3306 39.2998 36.0909ZM47.8892 40.8917C47.6403 41.0189 47.3623 41.0784 47.0832 41.064C46.792 41.064 46.5603 40.9828 46.39 40.8184C46.2197 40.654 46.1305 40.3886 46.1305 40.0183C45.8216 40.3886 45.4631 40.656 45.0532 40.8184C44.6432 40.9808 44.1996 41.064 43.7242 41.064C43.4153 41.064 43.1222 41.0283 42.8429 40.957C42.5637 40.8857 42.326 40.7788 42.122 40.6282C41.9159 40.4737 41.7507 40.2711 41.6408 40.0381C41.5149 39.7624 41.4539 39.4616 41.4625 39.1587C41.4625 38.7705 41.5279 38.4537 41.6606 38.2081C41.7933 37.9625 41.9656 37.7585 42.1834 37.606C42.3993 37.4515 42.6449 37.3347 42.9221 37.2554C43.1994 37.1762 43.4846 37.1089 43.7757 37.0574C44.0847 36.994 44.3778 36.9485 44.6551 36.9188C44.9323 36.8871 45.1779 36.8415 45.3898 36.7841C45.6017 36.7267 45.7681 36.6455 45.8929 36.5345C46.0177 36.4236 46.0771 36.2632 46.0771 36.0513C46.0866 35.8443 46.0386 35.6386 45.9384 35.4572C45.8453 35.3066 45.7265 35.1918 45.5819 35.1125C45.4374 35.0333 45.273 34.9799 45.0928 34.9541C44.9125 34.9284 44.7323 34.9145 44.558 34.9145C44.0807 34.9145 43.6826 35.0036 43.3658 35.1838C43.0489 35.3661 42.8766 35.7067 42.8508 36.2097H41.7259C41.7437 35.7859 41.8329 35.4294 41.9913 35.1383C42.1497 34.8472 42.3617 34.6115 42.6251 34.4313C42.8905 34.251 43.1915 34.1203 43.5321 34.0411C43.8688 33.9619 44.2352 33.9223 44.6214 33.9223C44.9304 33.9223 45.2373 33.9421 45.5423 33.9876C45.8473 34.0332 46.1206 34.1223 46.3682 34.259C46.6158 34.3956 46.8138 34.5857 46.9623 34.8333C47.1109 35.0809 47.1881 35.3997 47.1881 35.7958V39.3073C47.1881 39.5707 47.204 39.7628 47.2357 39.8875C47.2673 40.0123 47.3683 40.0717 47.5466 40.0717C47.6626 40.0686 47.7777 40.0506 47.8892 40.0183V40.8917ZM46.0652 37.3862C45.8993 37.5027 45.7101 37.5818 45.5106 37.6179C45.2715 37.668 45.0303 37.7077 44.7878 37.7367C44.5362 37.7664 44.2827 37.8021 44.0273 37.8417C43.791 37.8756 43.5601 37.9395 43.34 38.0318C43.136 38.1189 42.9717 38.2437 42.8449 38.4081C42.7182 38.5725 42.6528 38.7903 42.6528 39.0716C42.6528 39.2558 42.6884 39.4102 42.7637 39.539C42.839 39.6657 42.936 39.7687 43.0548 39.8479C43.1737 39.9271 43.3123 39.9826 43.4707 40.0183C43.6292 40.0539 43.7975 40.0717 43.9738 40.0717C44.3441 40.0717 44.663 40.0202 44.9264 39.9192C45.1898 39.8182 45.4077 39.6915 45.574 39.539C45.7404 39.3865 45.8652 39.2181 45.9444 39.0379C46.0236 38.8597 46.0632 38.6893 46.0632 38.5309L46.0652 37.3862ZM51.8581 34.0807V35.071H50.4955V39.3172C50.4955 39.4498 50.5054 39.5548 50.5272 39.634C50.549 39.7133 50.5926 39.7766 50.654 39.8202C50.7154 39.8638 50.8005 39.8935 50.9114 39.9073C51.0224 39.9212 51.1649 39.9271 51.3412 39.9271H51.8561V40.9174H50.9986C50.7075 40.9174 50.4579 40.8976 50.25 40.858C50.042 40.8184 49.8737 40.7471 49.7469 40.6401C49.6202 40.5352 49.5251 40.3846 49.4637 40.1906C49.4023 39.9965 49.3706 39.741 49.3706 39.4241V35.0729H48.2061V34.0807H49.3706V32.0289H50.4955V34.0787L51.8581 34.0807ZM57.9402 40.4817C57.4292 40.8699 56.7856 41.064 56.0092 41.064C55.4626 41.064 54.9893 40.9748 54.5872 40.7986C54.1872 40.6223 53.8505 40.3767 53.5772 40.0579C53.3039 39.739 53.0979 39.3627 52.9632 38.9211C52.8286 38.4794 52.7474 38.0001 52.7295 37.4792C52.7295 36.9584 52.8088 36.4831 52.9672 36.0513C53.1256 35.6196 53.3494 35.2433 53.6366 34.9264C53.9266 34.6033 54.2828 34.3464 54.6809 34.1731C55.079 33.9999 55.5098 33.9143 55.9439 33.9223C56.5519 33.9223 57.0569 34.047 57.459 34.2986C57.861 34.5501 58.1818 34.8689 58.4235 35.2571C58.6671 35.6453 58.8334 36.0691 58.9265 36.5266C59.0196 36.9861 59.0572 37.4218 59.0394 37.8357H53.9198C53.9119 38.1368 53.9475 38.42 54.0268 38.6893C54.106 38.9587 54.2327 39.1963 54.411 39.4023C54.5853 39.6103 54.811 39.7766 55.0843 39.8994C55.3577 40.0222 55.6785 40.0856 56.0508 40.0856C56.5261 40.0856 56.9163 39.9747 57.2193 39.7548C57.5223 39.535 57.7263 39.2003 57.8214 38.7488H58.9324C58.7819 39.5172 58.4512 40.0955 57.9402 40.4817ZM57.6728 36.0909C57.4795 35.6291 57.1136 35.261 56.6529 35.065C56.4085 34.9623 56.1456 34.9111 55.8805 34.9145C55.6102 34.9099 55.3419 34.9611 55.0923 35.065C54.8661 35.1615 54.6619 35.303 54.4922 35.4809C54.3238 35.6592 54.1911 35.8632 54.0961 36.0969C54.001 36.3306 53.9396 36.5801 53.9218 36.8455H57.8511C57.8313 36.5801 57.7719 36.3306 57.6728 36.0909ZM67.9655 35.271C67.6842 35.0333 67.304 34.9145 66.8287 34.9145C66.4759 34.9023 66.1258 34.9793 65.8107 35.1383C65.5473 35.2795 65.3228 35.4836 65.1571 35.7324C64.9877 35.9927 64.8682 36.2821 64.8046 36.586C64.7353 36.9089 64.6996 37.2396 64.6996 37.5862C64.6996 37.9031 64.7373 38.212 64.8125 38.5111C64.8858 38.8101 65.0026 39.0775 65.1631 39.3112C65.3235 39.5449 65.5275 39.7331 65.7849 39.8737C66.0656 40.0208 66.3792 40.0937 66.696 40.0856C67.2505 40.0856 67.6862 39.939 67.9991 39.6499C68.312 39.3607 68.5042 38.9468 68.5735 38.418H69.7261C69.6013 39.2657 69.2865 39.9172 68.7794 40.3767C68.2724 40.8342 67.5832 41.064 66.7098 41.064C66.189 41.064 65.7295 40.9788 65.3275 40.8124C64.9254 40.6461 64.5907 40.4064 64.3214 40.0995C64.052 39.7925 63.85 39.4221 63.7133 38.9943C63.5767 38.5665 63.5094 38.0972 63.5094 37.5862C63.5094 37.0752 63.5747 36.5959 63.7074 36.1503C63.8401 35.7047 64.0401 35.3185 64.3095 34.9858C64.5788 34.655 64.9155 34.3956 65.3195 34.2055C65.7649 34.0079 66.2485 33.9112 66.7356 33.9223C67.1238 33.9223 67.4882 33.9678 67.8268 34.0609C68.1655 34.154 68.4665 34.2986 68.726 34.4907C68.9874 34.6848 69.2013 34.9284 69.3677 35.2235C69.536 35.5205 69.641 35.8711 69.6845 36.2751H68.522C68.458 35.8866 68.2622 35.532 67.9674 35.271H67.9655ZM72.1067 31.4744V35.0848H72.1324C72.2151 34.8816 72.3416 34.699 72.5028 34.5501C72.6612 34.4035 72.8395 34.2847 73.0375 34.1936C73.2355 34.1005 73.4435 34.0312 73.6594 33.9876C73.8753 33.944 74.0852 33.9223 74.2892 33.9223C74.7387 33.9223 75.1131 33.9817 75.4121 34.1065C75.7112 34.2312 75.9548 34.4035 76.139 34.6214C76.3282 34.8505 76.4617 35.1203 76.5291 35.4096C76.6044 35.7146 76.642 36.0513 76.642 36.4197V40.9174H75.5191V36.289C75.5191 35.8651 75.3943 35.5304 75.1487 35.2849C74.9012 35.0373 74.5605 34.9145 74.1288 34.9145C73.7861 34.9145 73.4871 34.966 73.2375 35.0729C72.9953 35.1714 72.7796 35.3254 72.6077 35.5225C72.4372 35.7216 72.3092 35.9535 72.2314 36.2038C72.1449 36.4793 72.1021 36.7667 72.1047 37.0554V40.9174H70.9818V31.4744H72.1067ZM83.1756 40.4817C82.6647 40.8699 82.021 41.064 81.2447 41.064C80.6981 41.064 80.2247 40.9748 79.8227 40.7986C79.4226 40.6223 79.0839 40.3767 78.8126 40.0579C78.5413 39.739 78.3333 39.3627 78.1967 38.9211C78.06 38.4794 77.9828 38.0001 77.965 37.4792C77.965 36.9584 78.0442 36.4831 78.2026 36.0513C78.3611 35.6196 78.5849 35.2433 78.87 34.9264C79.1602 34.6029 79.5167 34.3458 79.9152 34.1725C80.3137 33.9993 80.7449 33.9139 81.1793 33.9223C81.7873 33.9223 82.2923 34.047 82.6924 34.2986C83.0925 34.5501 83.4153 34.8689 83.6589 35.2571C83.9005 35.6453 84.0688 36.0691 84.1619 36.5266C84.253 36.9861 84.2907 37.4218 84.2728 37.8357H79.1552C79.1453 38.1368 79.181 38.42 79.2602 38.6893C79.3394 38.9587 79.4682 39.1963 79.6444 39.4023C79.8289 39.6163 80.059 39.7861 80.3178 39.8994C80.5911 40.0242 80.9139 40.0856 81.2843 40.0856C81.7596 40.0856 82.1497 39.9747 82.4547 39.7548C82.7597 39.533 82.9598 39.2003 83.0568 38.7488H84.1659C84.0173 39.5172 83.6866 40.0955 83.1756 40.4817ZM82.9043 36.0909C82.7109 35.6298 82.3459 35.262 81.8863 35.065C81.6419 34.9624 81.379 34.9112 81.1139 34.9145C80.8436 34.9098 80.5753 34.961 80.3257 35.065C80.0988 35.1613 79.894 35.3028 79.7236 35.4809C79.5573 35.6592 79.4246 35.8632 79.3275 36.0969C79.2305 36.3306 79.1731 36.5801 79.1552 36.8455H83.0845C83.0683 36.5857 83.006 36.3305 82.9043 36.0909ZM86.4949 34.0807V35.0848H86.5227C87.0336 34.3104 87.7704 33.9223 88.7309 33.9223C89.1547 33.9223 89.537 34.0094 89.8816 34.1857C90.2262 34.3619 90.4678 34.661 90.6084 35.0848C90.8382 34.7145 91.1392 34.4293 91.5155 34.2253C91.8953 34.0217 92.3204 33.9174 92.7513 33.9223C93.0959 33.9223 93.4049 33.9599 93.6841 34.0332C93.9614 34.1084 94.1991 34.2253 94.3971 34.3837C94.5952 34.5422 94.7516 34.7481 94.8605 34.9977C94.9715 35.2512 95.0269 35.5522 95.0269 35.9047V40.9174H93.902V36.4355C93.902 36.2236 93.8842 36.0236 93.8485 35.8394C93.8129 35.6552 93.7495 35.4928 93.6505 35.3561C93.5514 35.2195 93.4188 35.1125 93.2465 35.0333C93.0742 34.9541 92.8523 34.9145 92.579 34.9145C92.0245 34.9145 91.5888 35.0729 91.2719 35.3898C90.953 35.7067 90.7946 36.1305 90.7946 36.6593V40.9174H89.6697V36.4355C89.6697 36.2137 89.6499 36.0117 89.6103 35.8255C89.5706 35.6413 89.5013 35.4809 89.4043 35.3443C89.3072 35.2076 89.1785 35.1007 89.0141 35.0274C88.8153 34.9455 88.6012 34.907 88.3863 34.9145C88.0939 34.9063 87.8045 34.9745 87.5466 35.1125C87.2654 35.2665 87.0278 35.489 86.8557 35.7594C86.6836 36.0299 86.5827 36.3394 86.5623 36.6593V40.9174H85.4374V34.0807H86.4949ZM96.7876 32.8508V31.4744H97.9105V32.8508H96.7876ZM97.9105 34.0787V40.9174H96.7856V34.0807L97.9105 34.0787ZM100.515 39.3904C100.617 39.5595 100.76 39.7003 100.931 39.8004C101.111 39.9049 101.308 39.9785 101.513 40.0183C101.731 40.0638 101.953 40.0856 102.182 40.0856C102.359 40.0856 102.543 40.0717 102.737 40.046C102.931 40.0202 103.109 39.9707 103.272 39.8994C103.436 39.8281 103.571 39.7251 103.676 39.5885C103.781 39.4518 103.834 39.2775 103.834 39.0656C103.834 38.7745 103.725 38.5547 103.505 38.4041C103.286 38.2536 103.01 38.1328 102.678 38.0417C102.322 37.9433 101.963 37.8594 101.6 37.7902C101.212 37.7149 100.854 37.61 100.523 37.4733C100.192 37.3367 99.9167 37.1445 99.6949 36.899C99.4731 36.6534 99.3642 36.3048 99.3642 35.8651C99.3642 35.5225 99.4434 35.2254 99.5959 34.9799C99.7504 34.7323 99.9484 34.5323 100.19 34.3778C100.432 34.2233 100.707 34.1084 101.012 34.0332C101.317 33.9579 101.618 33.9203 101.917 33.9203C102.305 33.9203 102.662 33.954 102.988 34.0193C103.315 34.0847 103.602 34.2015 103.856 34.3639C104.109 34.5263 104.307 34.7481 104.456 35.0254C104.607 35.3027 104.694 35.6493 104.721 36.0632H103.596C103.587 35.8688 103.529 35.68 103.426 35.5146C103.331 35.3711 103.204 35.2512 103.056 35.164C102.905 35.0769 102.739 35.0115 102.559 34.9719C102.378 34.9323 102.194 34.9125 102.01 34.9125C101.842 34.9125 101.673 34.9264 101.501 34.9521C101.339 34.9756 101.181 35.0222 101.032 35.0908C100.898 35.1514 100.78 35.2422 100.687 35.3561C100.595 35.4797 100.548 35.6316 100.554 35.7859C100.554 35.98 100.624 36.1424 100.76 36.2692C100.913 36.4068 101.091 36.5143 101.283 36.586C101.495 36.6712 101.733 36.7405 101.996 36.798C102.262 36.8554 102.525 36.9148 102.788 36.9762C103.072 37.0376 103.347 37.1148 103.616 37.202C103.886 37.2891 104.123 37.406 104.329 37.5525C104.537 37.6971 104.706 37.8813 104.834 38.1011C104.961 38.321 105.024 38.5963 105.024 38.9211C105.024 39.337 104.939 39.6796 104.767 39.9509C104.595 40.2222 104.371 40.446 104.094 40.6144C103.804 40.7867 103.485 40.9055 103.153 40.9649C102.804 41.0303 102.46 41.064 102.115 41.064C101.737 41.064 101.374 41.0243 101.03 40.9451C100.704 40.8734 100.395 40.7411 100.119 40.555C99.8523 40.3719 99.6347 40.1265 99.485 39.84C99.3162 39.5056 99.2254 39.1372 99.2196 38.7626H100.343C100.352 39.0102 100.41 39.2181 100.515 39.3904ZM109.191 34.0807V35.071H107.829V39.3172C107.829 39.4498 107.841 39.5548 107.862 39.634C107.884 39.7133 107.926 39.7766 107.989 39.8202C108.053 39.8638 108.136 39.8935 108.247 39.9073C108.356 39.9192 108.498 39.9271 108.676 39.9271H109.191V40.9174H108.332C108.041 40.9174 107.791 40.8976 107.585 40.858C107.377 40.8184 107.209 40.7471 107.082 40.6401C106.955 40.5332 106.86 40.3846 106.799 40.1906C106.738 39.9965 106.706 39.741 106.706 39.4241V35.0729H105.541V34.0807H106.706V32.0289H107.829V34.0787L109.191 34.0807ZM111.453 34.0807V35.5225H111.479C111.752 34.968 112.087 34.556 112.485 34.2926C112.881 34.0272 113.384 33.9044 113.99 33.9223V35.1106C113.543 35.1106 113.158 35.1739 112.841 35.2967C112.543 35.4072 112.278 35.5944 112.075 35.8394C111.881 36.0771 111.738 36.3662 111.651 36.7049C111.564 37.0435 111.518 37.4357 111.518 37.8753V40.9174H110.394V34.0807H111.453ZM117.523 41.8324C117.412 42.1224 117.281 42.4049 117.133 42.6781C117.006 42.9058 116.866 43.094 116.711 43.2385C116.557 43.3831 116.385 43.4901 116.196 43.5554C116.006 43.6228 115.788 43.6545 115.541 43.6545C115.408 43.6545 115.275 43.6465 115.145 43.6287C115.014 43.6119 114.885 43.5814 114.761 43.5376V42.5058C114.97 42.5982 115.194 42.6519 115.422 42.6642C115.65 42.6642 115.842 42.6087 115.996 42.4978C116.151 42.3869 116.268 42.2325 116.347 42.0285L116.81 40.8798L114.097 34.0807H115.369L117.367 39.6756H117.393L119.31 34.0807H120.5L117.523 41.8324Z" fill="black"/>
<path d="M43.4923 0.989122H55.4544C59.8472 0.989122 61.8534 3.91631 61.8534 6.59395C61.8534 8.52097 61.1127 9.76473 59.1243 10.9233C61.6316 11.8502 62.9962 13.5217 62.9962 16.1023C62.9962 19.188 60.7542 22.4598 55.4703 22.4598H43.4863L43.4923 0.989122ZM50.0259 17.6135H54.3553C55.8961 17.6135 56.5912 16.5103 56.5912 15.5339C56.5912 15.9875 56.7893 13.7554 54.5731 13.7554H50.0279L50.0259 17.6135ZM50.0398 9.44389H53.5195C55.1098 9.44389 55.7436 8.70318 55.7436 7.61588C55.7436 7.36436 55.6644 5.96415 53.977 5.96415H50.0398V9.44389ZM69.8011 0.989122H76.719L84.5974 22.436H77.4973L76.4576 19.2236H69.8289L68.9475 22.4201H61.9009L69.8011 0.989122ZM72.9778 7.35248L71.1518 14.516H75.0554L72.9778 7.35248ZM95.6307 7.36634H102.226C102.226 3.72618 99.4887 0.345459 92.9868 0.345459C85.855 0.345459 83.6468 4.2827 83.6468 7.16235C83.6468 11.8086 89.3308 13.0425 89.507 13.0979C90.3567 13.3653 93.8839 14.31 94.7652 14.6229C95.5277 14.8962 96.2565 15.5082 96.2565 16.3242C96.2565 17.5778 94.7652 18.1799 93.5215 18.1799C92.7234 18.1799 90.0398 17.9165 90.0398 15.0725H83.2249C83.2249 18.8493 85.8233 23.0757 93.1115 23.0757C101.156 23.0757 102.84 18.2769 102.84 15.728C102.84 13.6445 101.659 11.3333 98.9361 10.2341C97.2983 9.5746 94.585 8.99431 93.2205 8.59623C92.5332 8.39422 90.2438 7.93078 90.2438 6.53255C90.2438 4.74416 93.1947 4.97389 92.7649 4.97389C94.0998 4.97389 95.6307 5.72649 95.6307 7.36634ZM120.424 0.983181V6.65138H110.54V10.4282H119.353V15.8449H110.508V22.4578H103.929L103.961 0.983181H120.424Z" fill="black"/>
<path d="M0.544922 0.989258V22.4639H22.0194V0.989258H0.544922ZM15.4125 15.8549H7.15184V7.59622H15.4105L15.4125 15.8549ZM28.6263 7.59622H36.885V15.8549H28.6263V7.59622Z" fill="black"/>
</svg>
