<svg width="85" height="48" viewBox="0 0 85 48" fill="none" xmlns="http://www.w3.org/2000/svg">
<path d="M24.0011 47.9885C29.0449 47.9885 32.8478 46.9845 36.2066 45.1255L36.9295 43.278C35.734 43.4616 34.6296 43.6051 33.7814 43.6051H33.3772L32.9844 43.5018C32.1134 43.278 31.0887 42.7043 29.933 41.7863C29.489 41.4363 28.7774 40.8568 28.2309 40.0937C26.967 40.3863 25.6122 40.547 24.132 40.547C14.3858 40.547 7.57719 33.7136 7.57719 23.9254C7.57719 14.6823 14.7616 7.43581 23.9384 7.43581C29.0791 7.43581 33.6334 9.50131 37.8518 13.7356L40.8348 6.10471C36.1724 2.19173 30.2803 0 24.132 0C17.6535 0 11.6305 2.32369 7.17869 6.5465C2.5504 10.9357 0 17.1092 0 23.9311C0 38.0971 9.87141 47.9885 24.0011 47.9885Z" fill="black"/>
<path d="M50.5238 19.4444C50.8711 19.387 51.1614 19.387 51.3379 19.387C52.949 19.387 54.691 19.9952 56.3306 20.655C56.5469 20.741 56.7518 20.8271 56.9511 20.9074C57.0422 20.9418 57.1389 20.982 57.2357 21.0222L60.6799 12.0315L63.9704 20.6148C64.107 20.6033 64.2493 20.5976 64.3803 20.5861H64.403H64.4258H64.4884C64.8015 20.5689 65.126 20.5574 65.4391 20.5574C65.5359 20.5574 65.6327 20.5574 65.7295 20.5574C65.7636 20.5574 65.7978 20.5574 65.8319 20.5574H65.8946C68.1205 20.6033 70.2325 20.8558 72.2022 21.3148L64.6934 1.73267H56.5298L49.6699 19.6509C49.9603 19.5591 50.2506 19.4845 50.5238 19.4444Z" fill="black"/>
<path d="M31.5614 22.0149C31.755 21.8772 35.1308 19.5134 35.1764 19.3068H30.6904C30.5139 19.3068 30.3944 19.3068 30.3261 19.0773H30.3204C29.9048 17.7806 28.9484 14.9291 28.8061 14.8545C28.3392 16.2889 27.8724 17.7175 27.417 19.1461C27.3658 19.3068 27.2576 19.3125 27.1267 19.3125C26.1133 19.2953 23.0904 19.3642 22.5098 19.3642C22.6122 19.456 25.0203 21.183 26.193 22.0206C26.3411 22.1239 26.4151 22.1985 26.3467 22.4165C25.971 23.5353 25.0488 26.341 25.0488 26.6336C25.1342 26.6623 27.3942 25.0271 28.4873 24.2468C28.7795 24.0364 29.0717 24.0364 29.364 24.2468C29.3981 24.2697 31.6696 25.8762 32.7854 26.6623C32.848 26.4557 31.8688 23.6616 31.4419 22.3936C31.3849 22.21 31.3963 22.1354 31.5614 22.0149Z" fill="black"/>
<path d="M82.7798 36.416L82.7342 36.4332C82.6773 35.1021 81.5957 32.3768 80.6506 31.5104C81.0548 30.2884 80.4912 29.6687 80.1668 29.2556C79.9732 29.0146 79.3299 28.8482 79.0453 28.7335C78.0262 27.1729 75.8459 25.7557 72.7888 24.8492C70.8077 24.264 68.4622 23.8853 65.8151 23.8279C65.6955 23.8279 65.5646 23.8222 65.4223 23.8222C65.1547 23.8222 64.8587 23.8337 64.5399 23.8509C62.1147 23.9828 58.3916 24.5279 57.5206 24.5279H57.4466C57.0822 24.5107 56.1828 24.1091 55.1182 23.6845C53.8658 23.1796 52.4027 22.646 51.3211 22.646C51.2072 22.646 51.0934 22.646 50.9909 22.6632C49.9719 22.7894 47.5695 24.3328 46.6814 24.8262C46.0723 25.1648 44.1025 26.0139 43.5389 26.3754C43.4194 26.4155 43.1518 26.4155 43.038 26.4557C41.6318 26.9262 40.6413 28.5499 40.22 28.831C40.1745 28.6589 39.645 27.9188 38.8993 27.9188C38.8139 27.9188 38.7228 27.9302 38.6317 27.9532C37.7265 28.3319 37.7891 29.0089 37.7891 29.3359C37.6127 29.2671 37.3508 28.94 36.8555 28.94C36.679 28.94 36.4684 28.9802 36.235 29.0835C35.2388 29.6228 35.7739 30.5121 35.5348 30.8162C35.1761 31.2982 33.9977 32.4858 33.5537 33.3063C33.3658 33.6448 33.5707 34.5284 33.4284 34.8784C33.0356 35.8423 30.9236 37.552 30.7243 37.9365C30.656 38.1143 31.2253 38.6881 31.9255 39.2446C32.5688 39.7552 33.3089 40.2372 33.77 40.3519C35.0623 40.3519 37.8347 39.8126 38.4381 39.7438H38.4438C38.6203 39.7438 38.9391 39.8643 39.349 39.9733C39.7076 40.0651 40.1403 40.1569 40.6299 40.1569C40.7608 40.1569 40.9031 40.1569 41.0398 40.1397C41.6717 40.0077 42.093 39.7151 42.4402 39.3651C43.0152 38.7799 43.3454 38.0397 44.0001 37.7471C44.501 37.5176 45.1386 37.3512 45.6908 37.3512C45.9641 37.3512 46.2203 37.3914 46.4252 37.4889C45.3834 39.3708 45.6111 41.8896 45.2468 42.2511C44.8426 42.647 44.5238 43.0601 44.2733 43.4502C43.3795 44.8329 43.2543 46.0895 42.8216 46.3821C42.7021 46.4624 42.5484 46.4911 42.3776 46.4911C41.888 46.4911 41.2219 46.2558 40.7551 46.2558C40.6413 46.2558 40.5388 46.2673 40.4477 46.3017C39.8898 46.5083 38.5918 47.7132 39.07 48C39.2181 48.0115 41.3472 48.0115 43.5845 48.0115H45.5257C45.5827 48.0115 46.7725 46.9157 46.8294 46.9157H49.9776C50.2736 46.8698 50.2451 46.3935 51.6057 45.6936C53.1428 45.0854 52.4141 42.0904 54.3838 39.8011C54.4009 39.8011 54.9873 39.2446 55.1239 39.2446C55.807 39.2446 56.957 40.4954 61.0957 40.4954C65.2344 40.4954 66.2363 39.0553 66.8056 39.0553C67.0903 39.0553 67.6596 39.4856 67.6596 39.629C65.8094 42.7961 70.4604 46.3534 70.0904 46.5771C70.079 46.5886 70.0619 46.5886 70.0449 46.5886C69.8855 46.5886 69.4357 46.3362 68.7583 46.3362C68.485 46.3362 68.1776 46.3763 67.836 46.4911C67.0846 46.7435 66.4754 47.7017 67.0618 47.9943C67.2155 47.9943 69.0657 48 70.9045 48C71.9292 48 72.9539 48 73.6826 47.9943C73.916 47.9656 73.8989 47.5181 73.8875 47.082C73.8818 46.7952 73.8762 46.514 73.9388 46.3649C74.1323 46.1124 74.3031 45.2174 74.7984 44.592C75.2823 44.0584 75.658 43.651 76.0565 43.651C76.2216 43.651 76.381 43.7256 76.5575 43.8805C77.4285 44.3625 79.5348 44.6264 80.7303 45.0624C81.2256 45.246 81.5729 45.4469 81.5957 45.7165C81.5786 45.8657 81.459 45.9116 81.2882 45.9116C81.2142 45.9116 81.1345 45.9059 81.0491 45.8944C80.7588 45.8542 80.3774 45.7624 80.0074 45.7624C79.8138 45.7624 79.6316 45.7911 79.4552 45.8542C78.9143 46.0608 78.3678 46.6517 78.2141 47.082C78.1344 47.3173 78.1629 47.5009 78.3792 47.5525H83.332C83.9013 47.5525 83.6906 46.405 84.9544 43.8576C85.1423 43.1404 83.3661 42.1593 83.1043 40.7995C82.9392 39.9102 82.7684 38.143 82.7456 36.4218L82.7798 36.416Z" fill="black"/>
</svg>
