<svg width="159" height="46" viewBox="0 0 159 46" fill="none" xmlns="http://www.w3.org/2000/svg">
<g clip-path="url(#clip0_1216_519)">
<path d="M24.8938 8.42233H28.5383L29.3049 7.66677L22.1938 0.555664L15.5272 7.21122L13.7383 5.43344V9.33344L15.4049 10.989L22.1272 4.26677L25.5827 7.73344L24.8938 8.42233Z" fill="black"/>
<path d="M26.8054 17.089L29.3943 19.6668H30.461V9.61121H21.0388V7.07788L18.2832 9.84455V12.189H27.7943V17.089H26.8054Z" fill="black"/>
<path d="M22.0387 24.5556V28.2111L22.7943 28.9778L29.9054 21.8667L23.2387 15.2L25.0387 13.4111H21.1276L19.4609 15.0778L26.1943 21.8L22.7387 25.2556L22.0387 24.5556Z" fill="black"/>
<path d="M13.3727 26.4778L10.7949 29.0667V30.1333H20.8505V20.7222H23.3838L20.6171 17.9556H18.2727V27.4556H13.3727V26.4778Z" fill="black"/>
<path d="M5.89549 21.7112H2.25104L1.48438 22.4668L8.59549 29.5779L15.2622 22.9223L17.051 24.7112V20.8001L15.3844 19.1445L8.66215 25.8668L5.2066 22.4001L5.89549 21.7112Z" fill="black"/>
<path d="M3.98368 13.0443L1.4059 10.4666H0.328125V20.5221H9.75035V23.0443L12.517 20.2888V17.9443H2.99479V13.0443H3.98368Z" fill="black"/>
<path d="M8.74948 5.56663V1.92218L7.99392 1.15552L0.882812 8.26663L7.53837 14.9333L5.76059 16.7222H9.66059L11.3273 15.0666L4.59392 8.33329L8.04948 4.87774L8.74948 5.56663Z" fill="black"/>
<path d="M17.4174 3.65556L19.9951 1.07778V0H9.93958V9.42222H7.40625L10.1729 12.1778H12.5174V2.67778H17.4174V3.65556Z" fill="black"/>
<path d="M29.1276 27.4778C29.861 27.4778 30.4499 28.0556 30.4499 28.7667C30.4499 29.4778 29.861 30.0778 29.1276 30.0778C28.3943 30.0778 27.7832 29.5 27.7832 28.7667C27.7832 28.0333 28.3832 27.4778 29.1276 27.4778ZM29.1054 27.7778C28.561 27.7778 28.1388 28.2222 28.1388 28.7778C28.1388 29.3333 28.561 29.7778 29.1054 29.7778C29.661 29.7778 30.0721 29.3222 30.0721 28.7778C30.0721 28.2333 29.661 27.7778 29.1054 27.7778ZM28.9388 29.4222H28.5943V28.1778C28.6943 28.1556 28.8721 28.1333 29.1054 28.1333C29.3721 28.1333 29.4832 28.1667 29.5721 28.2333C29.6499 28.2778 29.7054 28.3667 29.7054 28.5C29.7054 28.6333 29.5943 28.7445 29.4388 28.7889C29.5721 28.8556 29.6388 28.9556 29.6721 29.1222C29.7165 29.3 29.7388 29.3778 29.761 29.4222H29.3943C29.3943 29.4222 29.3276 29.2667 29.3054 29.1333C29.2832 29 29.2165 28.9444 29.0721 28.9444H28.9499V29.4111L28.9388 29.4222ZM28.9388 28.7111H29.061C29.2054 28.7111 29.3165 28.6556 29.3165 28.5445C29.3165 28.4333 29.2388 28.3778 29.0832 28.3778C29.0165 28.3778 28.9721 28.3778 28.9388 28.3778V28.7111Z" fill="black"/>
<path d="M48.4283 20.7666C44.895 20.7666 42.8061 18.5332 42.8061 14.9999C42.8061 11.0444 45.2727 9.12214 48.4061 9.12214C49.8394 9.12214 50.9727 9.43325 51.7505 9.77769L52.595 6.63325C51.8839 6.26658 50.3172 5.85547 48.2505 5.85547C42.9061 5.85547 38.6172 9.1888 38.6172 15.2221C38.6172 20.2777 41.7616 24.111 47.8616 24.111C49.9839 24.111 51.6616 23.6888 52.3616 23.3555L51.7839 20.211C50.9727 20.5555 49.6616 20.7888 48.4283 20.7888V20.7666Z" fill="black"/>
<path d="M59.5059 10.689C55.3726 10.689 52.6504 13.3334 52.6504 17.4779C52.6504 21.6223 55.5282 24.089 59.2726 24.089H59.2948C62.6948 24.089 66.0282 21.9334 66.0282 17.2667C66.0282 13.389 63.4171 10.689 59.5059 10.689ZM59.3504 21.2334H59.3171C57.6393 21.2334 56.7282 19.589 56.7282 17.4112C56.7282 15.5001 57.4615 13.5556 59.3504 13.5556C61.2393 13.5556 61.8948 15.5001 61.8948 17.389C61.8948 19.689 60.9282 21.2334 59.3504 21.2334Z" fill="black"/>
<path d="M97.8384 10.689C96.9051 10.689 96.1162 10.9223 95.4051 11.3223C94.7717 11.689 94.2273 12.2112 93.7273 12.9001H93.6717C93.1273 11.5556 91.8384 10.7001 90.1606 10.7001C87.994 10.7001 86.8384 11.9112 86.294 12.7445L86.0606 13.0223C85.3162 11.4445 83.9717 10.7001 82.3606 10.7001C81.4273 10.7001 80.6273 10.9334 79.9273 11.3334C79.3051 11.7001 78.7495 12.2223 78.2495 12.9112H78.2051C77.6606 11.5667 76.3717 10.7112 74.694 10.7112C72.5273 10.7112 71.3717 11.9223 70.8162 12.7556H70.7384L70.5829 11.0001H67.2051C67.2606 12.1445 67.3051 13.489 67.3051 15.089V23.8223H71.1829V16.3779C71.1829 16.0334 71.2162 15.6667 71.3384 15.3556C71.5717 14.7223 72.1717 13.9334 73.194 13.9334C74.4717 13.9334 75.0495 15.0334 75.0495 16.6334V23.8223H78.9273V16.3223C78.9273 16.0112 78.9717 15.6112 79.0606 15.3223C79.3495 14.5556 79.9717 13.9334 80.9162 13.9334C82.1051 13.9334 82.7051 14.8667 82.7829 16.4779V23.8223H86.6829V16.2667C86.6829 16.189 86.6829 16.1223 86.6829 16.0445C86.694 15.8001 86.7384 15.5667 86.8273 15.3445C87.0606 14.7112 87.6606 13.9223 88.6829 13.9223C89.9717 13.9223 90.5384 15.0223 90.5384 16.6223V23.8112H94.4162V16.3112C94.4162 16.0001 94.4717 15.6001 94.5495 15.3112C94.8384 14.5445 95.4606 13.9223 96.4051 13.9223C97.694 13.9223 98.294 15.0001 98.294 16.8556V23.8001H102.172V16.2445C102.172 12.4112 100.316 10.689 97.8495 10.689H97.8384Z" fill="black"/>
<path d="M115.695 10.9888H111.717V18.6221C111.717 18.9554 111.662 19.2443 111.562 19.4777C111.328 20.111 110.673 20.8666 109.573 20.8666C108.162 20.8666 107.562 19.7332 107.562 17.8777V10.9777H103.584V18.4999C103.584 22.4554 105.473 24.0777 108.084 24.0777C110.384 24.0777 111.584 22.7666 112.084 21.9777H112.162L112.351 23.7888H115.806C115.762 22.711 115.706 21.3554 115.706 19.6666V10.9666L115.695 10.9888Z" fill="black"/>
<path d="M124.895 10.6888C122.751 10.6888 121.462 11.9222 120.94 12.7555H120.862L120.684 10.9777H117.229C117.284 12.1222 117.34 13.4666 117.34 15.0666V23.8H121.317V16.4C121.317 16.0333 121.34 15.6666 121.451 15.4111C121.74 14.6777 122.395 13.9111 123.495 13.9111C124.94 13.9111 125.506 15.0444 125.506 16.6888V23.7888H129.484V16.2111C129.484 12.4333 127.529 10.6777 124.906 10.6777L124.895 10.6888Z" fill="black"/>
<path d="M133.105 5.05566C131.738 5.05566 130.85 5.97789 130.85 7.17789C130.85 8.37789 131.716 9.30011 133.05 9.30011H133.072C134.461 9.30011 135.327 8.35566 135.327 7.17789C135.305 5.97789 134.472 5.05566 133.105 5.05566Z" fill="black"/>
<path d="M154.405 10.9889L152.839 17.2778C152.65 18.0111 152.439 18.9778 152.261 19.6667H152.183C152.017 18.9778 151.761 18.0333 151.55 17.2778L149.639 10.9889H142.161V7.5L138.261 8.57778V10.9889H131.105V23.8111H135.083V13.9222H138.272V19.1889C138.272 21 138.639 22.2333 139.372 22.9889C140.028 23.6444 141.105 24.0889 142.383 24.0889C143.483 24.0889 144.45 23.9333 144.939 23.7444L144.917 20.7333C144.55 20.8111 144.294 20.8333 143.739 20.8333C142.561 20.8333 142.172 20.1222 142.172 18.5778V13.9111H146.417L149.95 22.6889C150.072 23 150.105 23.2111 150.105 23.3444C150.105 23.5333 150.028 23.7111 149.894 23.9222C149.528 24.5556 148.85 25.2111 148.25 25.5222C147.65 25.8667 147.017 26.1 146.517 26.2L147.361 29.5556C148.372 29.4444 149.85 29 151.205 27.8C152.65 26.5111 153.872 24.4889 155.705 19.4111L158.694 10.9667H154.428L154.405 10.9889Z" fill="black"/>
<path d="M42.584 32.9778V38.3444H48.784V32.9778H50.4618V45.8H48.784V39.7889H42.584V45.8H40.9062V32.9778H42.584Z" fill="black"/>
<path d="M53.0832 41.4999C53.1165 43.7443 54.5498 44.6777 56.2165 44.6777C57.4165 44.6777 58.1609 44.4666 58.7609 44.1999L59.0609 45.3999C58.472 45.6666 57.4498 45.9888 55.9832 45.9888C53.172 45.9888 51.4609 44.111 51.4609 41.3443C51.4609 38.5777 53.1165 36.3777 55.7943 36.3777C58.7943 36.3777 59.5832 39.0221 59.5832 40.711C59.5832 41.0555 59.5609 41.2999 59.5276 41.4888H53.0832V41.4999ZM57.9609 40.2999C57.9832 39.2332 57.5276 37.5777 55.6609 37.5777C53.9498 37.5777 53.2276 39.1332 53.0943 40.2999H57.9609Z" fill="black"/>
<path d="M67.284 43.5889C67.284 44.3889 67.3173 45.1667 67.4173 45.8H65.9173L65.7618 44.6445H65.7062C65.2062 45.3667 64.2062 46.0111 62.8951 46.0111C61.0284 46.0111 60.084 44.7 60.084 43.3667C60.084 41.1445 62.0618 39.9223 65.6173 39.9445V39.7556C65.6173 39 65.4062 37.6111 63.5284 37.6222C62.6507 37.6222 61.7618 37.8667 61.1173 38.3111L60.7395 37.1889C61.4951 36.7111 62.6173 36.3889 63.784 36.3889C66.6173 36.3889 67.3062 38.3111 67.3062 40.1556V43.6L67.284 43.5889ZM65.6507 41.1C63.8284 41.0667 61.7507 41.3889 61.7507 43.1778C61.7507 44.2778 62.4729 44.7778 63.3062 44.7778C64.5284 44.7778 65.3062 44.0222 65.5729 43.2334C65.6284 43.0667 65.6507 42.8667 65.6507 42.7V41.1Z" fill="black"/>
<path d="M68.6387 32.2888H70.3165V45.7888H68.6387V32.2888Z" fill="black"/>
<path d="M74.1845 34.3889V36.6H76.5845V37.8778H74.1845V42.8222C74.1845 43.9667 74.5067 44.6111 75.44 44.6111C75.8956 44.6111 76.1622 44.5778 76.4067 44.5L76.4845 45.7778C76.1622 45.8889 75.6511 46.0111 75.0067 46.0111C74.2289 46.0111 73.5956 45.7445 73.1956 45.3111C72.74 44.8 72.5511 43.9778 72.5511 42.9V37.9H71.1289V36.6222H72.5511V34.9334L74.1845 34.4222V34.3889Z" fill="black"/>
<path d="M77.5951 32.2888H79.2729V38.0333H79.3062C79.5729 37.5555 79.9951 37.1221 80.5062 36.8555C80.9951 36.5555 81.5951 36.3777 82.2173 36.3777C83.4506 36.3777 85.4284 37.1333 85.4284 40.311V45.7888H83.7507V40.4777C83.7507 38.9999 83.1951 37.7555 81.6173 37.7555C80.5284 37.7555 79.6951 38.511 79.3729 39.4333C79.2729 39.6666 79.2618 39.911 79.2618 40.2333V45.7888H77.584V32.2888H77.5951Z" fill="black"/>
<path d="M91.0951 45.8V32.9778H92.9173L97.0062 39.4667C97.9395 40.9667 98.6951 42.3222 99.284 43.6333L99.3395 43.6111C99.184 41.9 99.1507 40.3444 99.1507 38.3667V32.9889H100.706V45.8111H99.0284L94.9618 39.3111C94.0729 37.8889 93.2062 36.4222 92.584 35.0333L92.5284 35.0556C92.6284 36.6667 92.6395 38.2111 92.6395 40.3445V45.8222H91.084L91.0951 45.8Z" fill="black"/>
<path d="M103.361 41.4999C103.394 43.7443 104.827 44.6777 106.494 44.6777C107.694 44.6777 108.438 44.4666 109.038 44.1999L109.338 45.3999C108.749 45.6666 107.727 45.9888 106.261 45.9888C103.449 45.9888 101.738 44.111 101.738 41.3443C101.738 38.5777 103.394 36.3777 106.072 36.3777C109.072 36.3777 109.861 39.0221 109.861 40.711C109.861 41.0555 109.838 41.2999 109.805 41.4888H103.361V41.4999ZM108.249 40.2999C108.272 39.2332 107.816 37.5777 105.949 37.5777C104.238 37.5777 103.516 39.1332 103.383 40.2999H108.249Z" fill="black"/>
<path d="M112.905 34.3889V36.6H115.305V37.8778H112.905V42.8222C112.905 43.9667 113.227 44.6111 114.161 44.6111C114.616 44.6111 114.883 44.5778 115.127 44.5L115.205 45.7778C114.883 45.8889 114.372 46.0111 113.727 46.0111C112.95 46.0111 112.316 45.7445 111.916 45.3111C111.461 44.8 111.272 43.9778 111.272 42.9V37.9H109.85V36.6222H111.272V34.9334L112.905 34.4222V34.3889Z" fill="black"/>
<path d="M117.283 36.5889L118.517 41.2444C118.761 42.2666 119.006 43.2444 119.183 44.1889H119.239C119.45 43.2555 119.75 42.2667 120.061 41.2555L121.561 36.5778H122.972L124.394 41.1778C124.739 42.2667 125.006 43.2555 125.217 44.1778H125.272C125.428 43.2444 125.672 42.2778 125.972 41.1889L127.283 36.5667H128.939L125.972 45.7666H124.45L123.039 41.3778C122.717 40.3333 122.45 39.4222 122.217 38.3333H122.183C121.95 39.4333 121.672 40.4111 121.35 41.4L119.872 45.7778H118.35L115.572 36.5778H117.283V36.5889Z" fill="black"/>
<path d="M133.128 45.9999C130.661 45.9999 128.717 44.1777 128.717 41.2666C128.717 38.1888 130.75 36.3777 133.283 36.3777C135.817 36.3777 137.717 38.2999 137.717 41.0999C137.717 44.5221 135.339 46.011 133.15 46.011H133.128V45.9999ZM133.195 44.7444C134.795 44.7444 135.995 43.2444 135.995 41.1555C135.995 39.5999 135.217 37.6332 133.239 37.6332C131.261 37.6332 130.428 39.4555 130.428 41.211C130.428 43.2221 131.572 44.7444 133.183 44.7444H133.206H133.195Z" fill="black"/>
<path d="M138.562 39.4666C138.562 38.3777 138.54 37.4555 138.484 36.5999H139.951L140.029 38.411H140.084C140.507 37.1777 141.529 36.3999 142.651 36.3999C142.818 36.3999 142.951 36.4221 143.107 36.4332V38.011C142.94 37.9888 142.762 37.9777 142.54 37.9777C141.362 37.9777 140.529 38.8666 140.295 40.111C140.262 40.3555 140.24 40.6221 140.24 40.8888V45.811H138.562V39.4777V39.4666Z" fill="black"/>
<path d="M145.405 40.811H145.438C145.672 40.4888 145.972 40.0888 146.238 39.7666L148.96 36.5888H150.961L147.405 40.3777L151.46 45.7999H149.427L146.272 41.3888L145.416 42.3444V45.811H143.738V32.311H145.416V40.8333L145.405 40.811Z" fill="black"/>
</g>
<defs>
<clipPath id="clip0_1216_519">
<rect width="158.344" height="46" fill="white" transform="translate(0.328125)"/>
</clipPath>
</defs>
</svg>
