<svg width="223" height="40" viewBox="0 0 223 40" fill="none" xmlns="http://www.w3.org/2000/svg">
<mask id="mask0_778_709" style="mask-type:luminance" maskUnits="userSpaceOnUse" x="0" y="0" width="42" height="40">
<path d="M3.42844 0C1.53495 0 0 1.45501 0 3.25V36.5636C0 38.3586 1.53495 39.8136 3.42844 39.8136H38.5603C40.4533 39.8136 41.9877 38.3586 41.9877 36.5636V3.25C41.9877 1.45501 40.4533 0 38.5603 0H3.42844Z" fill="white"/>
</mask>
<g mask="url(#mask0_778_709)">
<path fill-rule="evenodd" clip-rule="evenodd" d="M-0.427734 40.2195H42.4165V-0.406738H-0.427734V40.2195Z" fill="black"/>
</g>
<mask id="mask1_778_709" style="mask-type:luminance" maskUnits="userSpaceOnUse" x="7" y="4" width="28" height="31">
<path d="M19.9249 7.86263C20.0086 9.22159 19.5563 17.6402 21.5049 17.9013C23.3683 18.1514 23.241 9.67284 23.242 8.52071C23.244 7.48604 23.6687 4.61405 22.1939 4.3435C22.058 4.31877 21.9302 4.30688 21.8103 4.30688C20.145 4.30688 19.966 6.59401 19.9249 7.86263ZM13.3749 6.78468C12.5154 7.46987 12.9035 9.06278 13.064 9.95528C13.2139 11.1117 14.3848 18.411 16.1529 18.537C18.4471 18.6991 16.2863 10.0846 16.1033 8.93582C15.9589 8.01716 15.4143 6.37053 14.3557 6.37053C14.0679 6.37053 13.7414 6.49273 13.3749 6.78468ZM28.0013 7.65769C26.9858 8.03428 26.8003 9.59533 26.6438 10.4555C26.3896 11.5525 24.3722 18.6349 25.9418 19.2574C27.9772 20.0633 29.5347 11.4987 29.7599 10.4003C29.9574 9.42891 30.0106 7.51267 28.7023 7.51267C28.5022 7.51267 28.2695 7.55784 28.0013 7.65769ZM7.19044 13.8905C7.46273 15.1572 10.4243 20.9772 11.5546 21.1903C12.7576 21.4185 10.4278 15.0469 10.2749 14.171C10.0913 13.1111 9.67865 11.6143 8.56994 11.4593C8.49372 11.4488 8.42101 11.4436 8.3513 11.4436C7.24059 11.4436 6.94372 12.7421 7.19044 13.8905ZM20.0863 19.2945C16.6148 19.4233 13.2736 20.4894 11.2146 22.9786C8.99718 25.6599 9.50415 28.9018 11.9477 31.334C14.4379 33.6187 18.0449 34.4989 21.6343 34.2188C22.5414 34.1479 24.0984 33.7804 25.2904 33.1622C27.6558 31.9345 34.8932 24.5254 34.2649 23.8169C31.1589 20.3082 26.3816 27.7055 23.8061 29.3079C22.0295 30.4148 19.3331 30.5028 17.4386 29.4453C14.8441 28.0003 15.6379 24.5434 18.3769 23.6861C19.3417 23.3832 20.5928 23.5829 21.8479 23.7826C23.7595 24.0865 25.6795 24.3903 26.6122 22.9215C28.43 20.06 22.58 19.2892 20.3737 19.2892C20.2694 19.2892 20.1731 19.2911 20.0863 19.2945Z" fill="white"/>
</mask>
<g mask="url(#mask1_778_709)">
<path fill-rule="evenodd" clip-rule="evenodd" d="M6.49805 34.905H35.3201V3.56519H6.49805V34.905Z" fill="white"/>
</g>
<path fill-rule="evenodd" clip-rule="evenodd" d="M50.5207 14.9747C51.3441 13.6067 52.4684 12.5397 53.8945 11.7756C55.3196 11.0119 56.9178 10.6296 58.6889 10.6296C60.7609 10.6296 62.5757 11.1337 64.1342 12.1412C65.6927 13.1488 66.7819 14.543 67.4017 16.3223H63.1253C62.7 15.483 62.1023 14.8535 61.3321 14.4331C60.5613 14.0137 59.6718 13.8036 58.6623 13.8036C57.5817 13.8036 56.6209 14.0427 55.78 14.5211C54.939 14.9999 54.2831 15.6765 53.8143 16.5491C53.3449 17.4225 53.1107 18.4468 53.1107 19.6217C53.1107 20.7805 53.3449 21.8009 53.8143 22.6825C54.2831 23.564 54.939 24.244 55.78 24.7223C56.6209 25.2012 57.5817 25.4403 58.6623 25.4403C59.6718 25.4403 60.5613 25.2264 61.3321 24.7984C62.1023 24.37 62.7 23.7362 63.1253 22.8964H67.4017C66.7819 24.6933 65.6972 26.0913 64.1477 27.0903C62.5977 28.0898 60.778 28.589 58.6889 28.589C56.9178 28.589 55.3196 28.2072 53.8945 27.4431C52.4684 26.679 51.3441 25.6167 50.5207 24.2568C49.6968 22.8964 49.2852 21.352 49.2852 19.6217C49.2852 17.8928 49.6968 16.3436 50.5207 14.9747Z" fill="black"/>
<mask id="mask2_778_709" style="mask-type:luminance" maskUnits="userSpaceOnUse" x="49" y="10" width="19" height="19">
<path d="M53.8974 11.7758C52.4718 12.5399 51.347 13.6065 50.5241 14.9745C49.7003 16.3439 49.2891 17.8931 49.2891 19.6219C49.2891 21.3518 49.7003 22.8967 50.5241 24.2566C51.347 25.617 52.4718 26.6792 53.8974 27.4433C55.3236 28.207 56.9212 28.5893 58.6923 28.5893C60.7814 28.5893 62.6012 28.09 64.1511 27.0905C65.7006 26.091 66.7853 24.6931 67.4051 22.8967H63.1287C62.7034 23.7364 62.1057 24.3702 61.335 24.7987C60.5652 25.2266 59.6752 25.4406 58.6662 25.4406C57.5851 25.4406 56.6243 25.2014 55.7834 24.7226C54.9425 24.2442 54.2865 23.5643 53.8177 22.6827C53.3483 21.8011 53.1142 20.7807 53.1142 19.6219C53.1142 18.447 53.3483 17.4223 53.8177 16.5488C54.2865 15.6763 54.9425 15.0001 55.7834 14.5213C56.6243 14.043 57.5851 13.8033 58.6662 13.8033C59.6752 13.8033 60.5652 14.0135 61.335 14.4334C62.1057 14.8532 62.7034 15.4828 63.1287 16.322H67.4051C66.7853 14.5427 65.6961 13.1486 64.1376 12.141C62.5791 11.1339 60.7643 10.6299 58.6923 10.6299C56.9212 10.6299 55.3236 11.0117 53.8974 11.7758Z" fill="white"/>
</mask>
<g mask="url(#mask2_778_709)">
<path fill-rule="evenodd" clip-rule="evenodd" d="M48.8613 28.9961H67.8343V10.2241H48.8613V28.9961Z" fill="black"/>
</g>
<path fill-rule="evenodd" clip-rule="evenodd" d="M77.7718 25.1257C78.3651 24.8147 78.8389 24.3487 79.1935 23.7277C79.5475 23.1063 79.7245 22.3507 79.7245 21.4606C79.7245 20.1339 79.3569 19.114 78.6218 18.4003C77.8872 17.6866 76.9886 17.3295 75.9255 17.3295C74.8634 17.3295 73.9738 17.6866 73.2563 18.4003C72.5387 19.114 72.1806 20.1339 72.1806 21.4606C72.1806 22.7877 72.5302 23.8071 73.2297 24.5213C73.9292 25.2346 74.8103 25.5917 75.8728 25.5917C76.5458 25.5917 77.1786 25.4362 77.7718 25.1257ZM72.0478 27.7704C70.9145 27.1746 70.0244 26.3306 69.378 25.2388C68.7316 24.1471 68.4082 22.888 68.4082 21.4606C68.4082 20.0336 68.7402 18.774 69.4041 17.6823C70.069 16.591 70.9762 15.7475 72.1275 15.1508C73.2783 14.555 74.5625 14.2568 75.9792 14.2568C77.3958 14.2568 78.68 14.555 79.8303 15.1508C80.9811 15.7475 81.8893 16.591 82.5532 17.6823C83.2176 18.774 83.5496 20.0336 83.5496 21.4606C83.5496 22.888 83.2086 24.1471 82.5266 25.2388C81.8446 26.3306 80.924 27.1746 79.7646 27.7704C78.6043 28.3666 77.307 28.6643 75.8728 28.6643C74.4562 28.6643 73.181 28.3666 72.0478 27.7704Z" fill="black"/>
<mask id="mask3_778_709" style="mask-type:luminance" maskUnits="userSpaceOnUse" x="68" y="14" width="16" height="15">
<path d="M72.1255 15.1517C70.9742 15.748 70.0671 16.5915 69.4026 17.6828C68.7382 18.7745 68.4062 20.0341 68.4062 21.4611C68.4062 22.889 68.7297 24.1481 69.3761 25.2398C70.0219 26.3311 70.9125 27.1751 72.0458 27.7709C73.1791 28.3676 74.4538 28.6648 75.8704 28.6648C77.305 28.6648 78.6023 28.3676 79.7622 27.7709C80.922 27.1751 81.8427 26.3311 82.5247 25.2398C83.2067 24.1481 83.5476 22.889 83.5476 21.4611C83.5476 20.0341 83.2157 18.7745 82.5513 17.6828C81.8868 16.5915 80.9792 15.748 79.8284 15.1517C78.678 14.5555 77.3938 14.2578 75.9772 14.2578C74.5606 14.2578 73.2764 14.5555 72.1255 15.1517ZM73.2277 24.5214C72.5282 23.8076 72.1787 22.7882 72.1787 21.4611C72.1787 20.1344 72.5367 19.115 73.2543 18.4013C73.9714 17.6871 74.8615 17.3305 75.924 17.3305C76.9861 17.3305 77.8852 17.6871 78.6199 18.4013C79.355 19.115 79.7221 20.1344 79.7221 21.4611C79.7221 22.3517 79.5455 23.1072 79.1915 23.7282C78.837 24.3497 78.3626 24.8157 77.7699 25.1262C77.1767 25.4372 76.5433 25.5922 75.8704 25.5922C74.8083 25.5922 73.9273 25.2355 73.2277 24.5214Z" fill="white"/>
</mask>
<g mask="url(#mask3_778_709)">
<path fill-rule="evenodd" clip-rule="evenodd" d="M67.9785 29.0714H83.9769V13.8513H67.9785V29.0714Z" fill="black"/>
</g>
<path fill-rule="evenodd" clip-rule="evenodd" d="M96.9596 15.8563C98.0398 16.9062 98.5798 18.3712 98.5798 20.2518V28.4379H94.8611V20.7302C94.8611 19.6218 94.5687 18.7702 93.9845 18.1739C93.3998 17.5781 92.603 17.2795 91.5941 17.2795C90.5666 17.2795 89.7568 17.5781 89.163 18.1739C88.5698 18.7702 88.2735 19.6218 88.2735 20.7302V28.4379H84.5547V14.4836H88.2735V16.2215C88.7689 15.6172 89.4022 15.1431 90.1725 14.7984C90.9432 14.4541 91.7882 14.282 92.7093 14.282C94.4629 14.282 95.8795 14.8069 96.9596 15.8563Z" fill="black"/>
<mask id="mask4_778_709" style="mask-type:luminance" maskUnits="userSpaceOnUse" x="84" y="14" width="15" height="15">
<path d="M90.173 14.7984C89.4022 15.1426 88.7694 15.6167 88.2735 16.2215V14.4831H84.5547V28.4374H88.2735V20.7302C88.2735 19.6218 88.5698 18.7697 89.163 18.1739C89.7568 17.5781 90.5666 17.2795 91.5946 17.2795C92.6035 17.2795 93.4003 17.5781 93.985 18.1739C94.5687 18.7697 94.8616 19.6218 94.8616 20.7302V28.4374H98.5803V20.2513C98.5803 18.3708 98.0398 16.9062 96.9601 15.8559C95.8795 14.8065 94.4629 14.282 92.7098 14.282C91.7887 14.282 90.9437 14.4541 90.173 14.7984Z" fill="white"/>
</mask>
<g mask="url(#mask4_778_709)">
<path fill-rule="evenodd" clip-rule="evenodd" d="M84.127 28.845H99.0096V13.877H84.127V28.845Z" fill="black"/>
</g>
<path fill-rule="evenodd" clip-rule="evenodd" d="M100.693 17.6699C101.313 16.5868 102.172 15.7475 103.27 15.1512C104.368 14.555 105.625 14.2568 107.042 14.2568C108.867 14.2568 110.376 14.6895 111.571 15.554C112.766 16.4189 113.567 17.6319 113.975 19.1939H109.964C109.751 18.5895 109.394 18.1155 108.888 17.7707C108.384 17.4265 107.759 17.2544 107.015 17.2544C105.953 17.2544 105.112 17.6195 104.492 18.3499C103.872 19.0802 103.562 20.1173 103.562 21.4606C103.562 22.7877 103.872 23.8157 104.492 24.5461C105.112 25.2769 105.953 25.6421 107.015 25.6421C108.521 25.6421 109.503 25.004 109.964 23.7277H113.975C113.567 25.2388 112.762 26.4395 111.558 27.3296C110.353 28.2197 108.849 28.6648 107.042 28.6648C105.625 28.6648 104.368 28.3671 103.27 27.7704C102.172 27.1746 101.313 26.3349 100.693 25.2517C100.074 24.1685 99.7637 22.9051 99.7637 21.4606C99.7637 20.0165 100.074 18.7531 100.693 17.6699Z" fill="black"/>
<mask id="mask5_778_709" style="mask-type:luminance" maskUnits="userSpaceOnUse" x="99" y="14" width="15" height="15">
<path d="M103.27 15.152C102.172 15.7483 101.313 16.5875 100.693 17.6707C100.074 18.7539 99.7637 20.0172 99.7637 21.4613C99.7637 22.9059 100.074 24.1693 100.693 25.2524C101.313 26.3356 102.172 27.1753 103.27 27.7711C104.368 28.3679 105.625 28.6651 107.042 28.6651C108.849 28.6651 110.353 28.2205 111.558 27.3303C112.762 26.4402 113.567 25.2401 113.975 23.7285H109.964C109.503 25.0052 108.521 25.6423 107.015 25.6423C105.953 25.6423 105.112 25.2776 104.492 24.5473C103.872 23.8164 103.562 22.7884 103.562 21.4613C103.562 20.118 103.872 19.0815 104.492 18.3506C105.112 17.6203 105.953 17.2551 107.015 17.2551C107.759 17.2551 108.384 17.4272 108.888 17.7715C109.394 18.1157 109.751 18.5903 109.964 19.1942H113.975C113.567 17.6326 112.766 16.4201 111.571 15.5552C110.375 14.6903 108.867 14.2581 107.042 14.2581C105.625 14.2581 104.368 14.5557 103.27 15.152Z" fill="white"/>
</mask>
<g mask="url(#mask5_778_709)">
<path fill-rule="evenodd" clip-rule="evenodd" d="M99.334 29.0714H114.403V13.8513H99.334V29.0714Z" fill="black"/>
</g>
<path fill-rule="evenodd" clip-rule="evenodd" d="M120.744 14.9115C121.514 14.4922 122.395 14.282 123.387 14.282V17.9847H122.404C121.235 17.9847 120.354 18.2452 119.761 18.7654C119.167 19.2861 118.872 20.1928 118.872 21.4857V28.4379H115.152V14.4836H118.872V16.6495C119.35 15.9105 119.974 15.3319 120.744 14.9115Z" fill="black"/>
<mask id="mask6_778_709" style="mask-type:luminance" maskUnits="userSpaceOnUse" x="115" y="14" width="9" height="15">
<path d="M120.744 14.9115C119.974 15.3319 119.35 15.9105 118.872 16.6499V14.4836H115.152V28.4379H118.872V21.4862C118.872 20.1933 119.167 19.2866 119.762 18.7654C120.354 18.2452 121.234 17.9847 122.404 17.9847H123.387V14.282C122.395 14.282 121.514 14.4922 120.744 14.9115Z" fill="white"/>
</mask>
<g mask="url(#mask6_778_709)">
<path fill-rule="evenodd" clip-rule="evenodd" d="M114.725 28.8455H123.816V13.877H114.725V28.8455Z" fill="black"/>
</g>
<path fill-rule="evenodd" clip-rule="evenodd" d="M134.648 20.1511C134.63 19.2443 134.284 18.5177 133.612 17.9723C132.939 17.427 132.115 17.1535 131.142 17.1535C130.221 17.1535 129.446 17.4179 128.818 17.9471C128.189 18.4759 127.803 19.211 127.662 20.1511H134.648ZM138.393 22.5185H127.635C127.724 23.5261 128.096 24.3154 128.751 24.8865C129.406 25.4576 130.212 25.7429 131.168 25.7429C132.55 25.7429 133.532 25.1804 134.117 24.0553H138.128C137.703 25.3986 136.889 26.5027 135.684 27.3676C134.479 28.2326 133.001 28.6648 131.248 28.6648C129.831 28.6648 128.56 28.3671 127.436 27.7704C126.311 27.1746 125.435 26.3306 124.806 25.2393C124.178 24.1476 123.863 22.8885 123.863 21.4606C123.863 20.0165 124.173 18.7488 124.793 17.6576C125.412 16.5663 126.281 15.7266 127.396 15.1384C128.512 14.5512 129.796 14.2568 131.248 14.2568C132.647 14.2568 133.9 14.5426 135.007 15.1132C136.113 15.6843 136.972 16.495 137.584 17.5439C138.194 18.5938 138.5 19.7982 138.5 21.1586C138.5 21.6622 138.464 22.1158 138.393 22.5185Z" fill="black"/>
<mask id="mask7_778_709" style="mask-type:luminance" maskUnits="userSpaceOnUse" x="123" y="14" width="16" height="15">
<path d="M127.396 15.1394C126.281 15.7266 125.412 16.5668 124.793 17.6576C124.173 18.7493 123.863 20.017 123.863 21.4611C123.863 22.889 124.178 24.1481 124.806 25.2398C125.434 26.3311 126.311 27.1751 127.436 27.7709C128.56 28.3676 129.831 28.6648 131.248 28.6648C133.001 28.6648 134.479 28.2326 135.684 27.3677C136.888 26.5032 137.703 25.3991 138.128 24.0558H134.117C133.532 25.1804 132.55 25.7434 131.168 25.7434C130.212 25.7434 129.405 25.4581 128.75 24.887C128.096 24.3159 127.724 23.5266 127.635 22.519H138.393C138.464 22.1163 138.499 21.6627 138.499 21.1587C138.499 19.7987 138.194 18.5943 137.584 17.5444C136.972 16.495 136.113 15.6843 135.006 15.1137C133.9 14.5431 132.646 14.2578 131.248 14.2578C129.796 14.2578 128.512 14.5512 127.396 15.1394ZM128.818 17.9476C129.445 17.4184 130.221 17.154 131.142 17.154C132.115 17.154 132.939 17.427 133.612 17.9728C134.284 18.5182 134.63 19.2448 134.648 20.1516H127.662C127.803 19.2115 128.189 18.4764 128.818 17.9476Z" fill="white"/>
</mask>
<g mask="url(#mask7_778_709)">
<path fill-rule="evenodd" clip-rule="evenodd" d="M123.436 29.0714H138.928V13.8513H123.436V29.0714Z" fill="black"/>
</g>
<path fill-rule="evenodd" clip-rule="evenodd" d="M144.004 17.3811V24.1317C144.004 24.6019 144.124 24.9414 144.363 25.1516C144.603 25.3618 145.005 25.4664 145.572 25.4664H147.298V28.4387H144.961C141.826 28.4387 140.259 26.9951 140.259 24.1065V17.3811H138.506V14.4844H140.259V11.0337H144.004V14.4844H147.298V17.3811H144.004Z" fill="black"/>
<mask id="mask8_778_709" style="mask-type:luminance" maskUnits="userSpaceOnUse" x="138" y="11" width="10" height="18">
<path d="M140.259 11.0334V14.4846H138.506V17.3813H140.259V24.1067C140.259 26.9953 141.826 28.4389 144.961 28.4389H147.298V25.4666H145.572C145.005 25.4666 144.603 25.362 144.362 25.1518C144.124 24.9416 144.004 24.6021 144.004 24.1319V17.3813H147.298V14.4846H144.004V11.0334H140.259Z" fill="white"/>
</mask>
<g mask="url(#mask8_778_709)">
<path fill-rule="evenodd" clip-rule="evenodd" d="M138.078 28.845H147.727V10.6274H138.078V28.845Z" fill="black"/>
</g>
<path fill-rule="evenodd" clip-rule="evenodd" d="M158.459 20.1511C158.441 19.2443 158.095 18.5177 157.423 17.9723C156.75 17.427 155.926 17.1535 154.952 17.1535C154.032 17.1535 153.257 17.4179 152.628 17.9471C151.999 18.4759 151.614 19.211 151.472 20.1511H158.459ZM162.204 22.5185H151.446C151.535 23.5261 151.907 24.3154 152.562 24.8865C153.217 25.4576 154.022 25.7429 154.979 25.7429C156.361 25.7429 157.343 25.1804 157.927 24.0553H161.938C161.513 25.3986 160.699 26.5027 159.495 27.3676C158.29 28.2326 156.812 28.6648 155.059 28.6648C153.642 28.6648 152.371 28.3671 151.247 27.7704C150.122 27.1746 149.245 26.3306 148.617 25.2393C147.988 24.1476 147.674 22.8885 147.674 21.4606C147.674 20.0165 147.984 18.7488 148.604 17.6576C149.223 16.5663 150.091 15.7266 151.207 15.1384C152.323 14.5512 153.607 14.2568 155.059 14.2568C156.457 14.2568 157.711 14.5426 158.817 15.1132C159.924 15.6843 160.783 16.495 161.394 17.5439C162.005 18.5938 162.311 19.7982 162.311 21.1586C162.311 21.6622 162.275 22.1158 162.204 22.5185Z" fill="black"/>
<mask id="mask9_778_709" style="mask-type:luminance" maskUnits="userSpaceOnUse" x="147" y="14" width="16" height="15">
<path d="M151.204 15.1396C150.089 15.7269 149.221 16.5671 148.602 17.6578C147.981 18.7496 147.672 20.0172 147.672 21.4613C147.672 22.8892 147.986 24.1483 148.615 25.2401C149.243 26.3313 150.119 27.1753 151.244 27.7711C152.369 28.3679 153.639 28.6651 155.056 28.6651C156.809 28.6651 158.287 28.2328 159.492 27.3679C160.697 26.5035 161.511 25.3994 161.936 24.0561H157.925C157.34 25.1806 156.359 25.7436 154.977 25.7436C154.02 25.7436 153.214 25.4583 152.56 24.8872C151.904 24.3162 151.532 23.5269 151.444 22.5193H162.202C162.273 22.1165 162.308 21.6629 162.308 21.1589C162.308 19.799 162.002 18.5946 161.392 17.5447C160.781 16.4953 159.921 15.6845 158.815 15.1139C157.708 14.5434 156.455 14.2581 155.056 14.2581C153.604 14.2581 152.321 14.5514 151.204 15.1396ZM152.626 17.9479C153.254 17.4187 154.029 17.1543 154.95 17.1543C155.924 17.1543 156.747 17.4272 157.421 17.9731C158.093 18.5185 158.439 19.245 158.456 20.1518H151.47C151.612 19.2118 151.997 18.4766 152.626 17.9479Z" fill="white"/>
</mask>
<g mask="url(#mask9_778_709)">
<path fill-rule="evenodd" clip-rule="evenodd" d="M147.244 29.0716H162.738V13.8516H147.244V29.0716Z" fill="black"/>
</g>
<path fill-rule="evenodd" clip-rule="evenodd" d="M168.423 14.9747C169.246 13.6067 170.371 12.5397 171.797 11.7756C173.221 11.0119 174.821 10.6296 176.591 10.6296C178.663 10.6296 180.479 11.1337 182.037 12.1412C183.595 13.1488 184.684 14.543 185.304 16.3223H181.027C180.602 15.483 180.005 14.8535 179.234 14.4331C178.464 14.0137 177.574 13.8036 176.564 13.8036C175.484 13.8036 174.523 14.0427 173.682 14.5211C172.841 14.9999 172.186 15.6765 171.717 16.5491C171.248 17.4225 171.013 18.4468 171.013 19.6217C171.013 20.7805 171.248 21.8009 171.717 22.6825C172.186 23.564 172.841 24.244 173.682 24.7223C174.523 25.2012 175.484 25.4403 176.564 25.4403C177.574 25.4403 178.464 25.2264 179.234 24.7984C180.005 24.37 180.602 23.7362 181.027 22.8964H185.304C184.684 24.6933 183.6 26.0913 182.051 27.0903C180.5 28.0898 178.681 28.589 176.591 28.589C174.821 28.589 173.221 28.2072 171.797 27.4431C170.371 26.679 169.246 25.6167 168.423 24.2568C167.599 22.8964 167.188 21.352 167.188 19.6217C167.188 17.8928 167.599 16.3436 168.423 14.9747Z" fill="black"/>
<mask id="mask10_778_709" style="mask-type:luminance" maskUnits="userSpaceOnUse" x="167" y="10" width="19" height="19">
<path d="M171.797 11.7756C170.371 12.5397 169.246 13.6062 168.423 14.9742C167.6 16.3436 167.188 17.8928 167.188 19.6217C167.188 21.3516 167.6 22.8964 168.423 24.2563C169.246 25.6167 170.371 26.679 171.797 27.4431C173.222 28.2067 174.821 28.589 176.591 28.589C178.681 28.589 180.5 28.0898 182.051 27.0903C183.599 26.0908 184.684 24.6928 185.305 22.8964H181.027C180.602 23.7362 180.005 24.37 179.234 24.7984C178.464 25.2264 177.574 25.4403 176.564 25.4403C175.485 25.4403 174.523 25.2012 173.683 24.7223C172.841 24.244 172.186 23.564 171.717 22.6825C171.248 21.8009 171.013 20.7805 171.013 19.6217C171.013 18.4468 171.248 17.4221 171.717 16.5486C172.186 15.6761 172.841 14.9999 173.683 14.5211C174.523 14.0427 175.485 13.8031 176.564 13.8031C177.574 13.8031 178.464 14.0133 179.234 14.4331C180.005 14.853 180.602 15.4825 181.027 16.3218H185.305C184.684 14.5425 183.595 13.1483 182.037 12.1408C180.479 11.1337 178.663 10.6296 176.591 10.6296C174.821 10.6296 173.222 11.0115 171.797 11.7756Z" fill="white"/>
</mask>
<g mask="url(#mask10_778_709)">
<path fill-rule="evenodd" clip-rule="evenodd" d="M166.76 28.9961H185.733V10.2241H166.76V28.9961Z" fill="black"/>
</g>
<path fill-rule="evenodd" clip-rule="evenodd" d="M206.823 10.8567V28.4381H203.104V17.0025L198.137 28.4381H195.321L190.327 17.0025V28.4381H186.607V10.8567H190.831L196.729 23.9294L202.626 10.8567H206.823Z" fill="black"/>
<mask id="mask11_778_709" style="mask-type:luminance" maskUnits="userSpaceOnUse" x="186" y="10" width="21" height="19">
<path d="M202.623 10.8569L196.726 23.9297L190.829 10.8569H186.605V28.4383H190.325V17.0027L195.318 28.4383H198.135L203.101 17.0027V28.4383H206.821V10.8569H202.623Z" fill="white"/>
</mask>
<g mask="url(#mask11_778_709)">
<path fill-rule="evenodd" clip-rule="evenodd" d="M186.178 28.8452H207.249V10.4512H186.178V28.8452Z" fill="black"/>
</g>
<path fill-rule="evenodd" clip-rule="evenodd" d="M211.477 27.9853C210.441 27.5659 209.621 26.961 209.02 26.1717C208.417 25.3829 208.107 24.4509 208.09 23.3758H212.074C212.128 24.0981 212.397 24.6692 212.885 25.0885C213.371 25.5089 214.04 25.7181 214.891 25.7181C215.758 25.7181 216.44 25.5212 216.935 25.1266C217.431 24.7324 217.68 24.216 217.68 23.5774C217.68 23.0572 217.511 22.6288 217.175 22.2926C216.838 21.9574 216.417 21.6926 215.913 21.4995C215.409 21.3069 214.713 21.0925 213.827 20.8571C212.623 20.5214 211.645 20.1895 210.892 19.8624C210.139 19.5348 209.493 19.0393 208.953 18.376C208.413 17.7127 208.143 16.8268 208.143 15.7185C208.143 14.6776 208.417 13.7708 208.966 12.9982C209.515 12.226 210.286 11.634 211.278 11.2227C212.269 10.8114 213.402 10.6055 214.678 10.6055C216.59 10.6055 218.144 11.0463 219.34 11.9278C220.535 12.8094 221.194 14.0395 221.319 15.6177H217.228C217.192 15.0133 216.922 14.514 216.417 14.1189C215.913 13.7247 215.245 13.5274 214.412 13.5274C213.686 13.5274 213.106 13.7033 212.672 14.0561C212.238 14.4089 212.022 14.9215 212.022 15.5929C212.022 16.0632 212.185 16.4536 212.513 16.7641C212.84 17.075 213.247 17.3271 213.735 17.5196C214.222 17.7127 214.908 17.9352 215.793 18.1872C216.998 18.5229 217.981 18.8591 218.742 19.1948C219.503 19.5305 220.158 20.0345 220.707 20.7059C221.256 21.3778 221.531 22.2594 221.531 23.3506C221.531 24.2916 221.274 25.1641 220.761 25.9701C220.247 26.7766 219.494 27.4185 218.503 27.8973C217.511 28.3756 216.334 28.6153 214.97 28.6153C213.677 28.6153 212.513 28.4056 211.477 27.9853Z" fill="black"/>
<mask id="mask12_778_709" style="mask-type:luminance" maskUnits="userSpaceOnUse" x="208" y="10" width="14" height="19">
<path d="M211.276 11.2212C210.283 11.633 209.513 12.225 208.964 12.9972C208.415 13.7703 208.141 14.6766 208.141 15.7179C208.141 16.8258 208.411 17.7122 208.951 18.375C209.491 19.0383 210.137 19.5338 210.891 19.8609C211.642 20.1885 212.621 20.5204 213.826 20.8561C214.711 21.092 215.406 21.3059 215.911 21.4985C216.415 21.692 216.836 21.9564 217.173 22.2916C217.509 22.6278 217.678 23.0567 217.678 23.5764C217.678 24.215 217.429 24.7314 216.933 25.1256C216.438 25.5203 215.756 25.7176 214.888 25.7176C214.038 25.7176 213.369 25.5079 212.882 25.0876C212.395 24.6682 212.125 24.0971 212.072 23.3748H208.088C208.105 24.4499 208.415 25.3819 209.018 26.1707C209.619 26.96 210.439 27.5649 211.475 27.9843C212.511 28.4046 213.675 28.6143 214.967 28.6143C216.331 28.6143 217.509 28.3746 218.501 27.8963C219.492 27.4175 220.245 26.7756 220.759 25.9691C221.272 25.1632 221.529 24.2906 221.529 23.3496C221.529 22.2584 221.254 21.3768 220.705 20.7049C220.156 20.0335 219.5 19.5295 218.74 19.1933C217.978 18.8581 216.995 18.5219 215.791 18.1862C214.905 17.9342 214.219 17.7122 213.732 17.5186C213.245 17.3261 212.838 17.0745 212.511 16.7631C212.183 16.4526 212.02 16.0622 212.02 15.5919C212.02 14.9205 212.235 14.408 212.67 14.0551C213.104 13.7023 213.684 13.5264 214.41 13.5264C215.243 13.5264 215.911 13.7237 216.415 14.1179C216.92 14.513 217.19 15.0123 217.225 15.6167H221.317C221.192 14.0385 220.533 12.8084 219.337 11.9268C218.142 11.0453 216.589 10.604 214.675 10.604C213.4 10.604 212.267 10.8104 211.276 11.2212Z" fill="white"/>
</mask>
<g mask="url(#mask12_778_709)">
<path fill-rule="evenodd" clip-rule="evenodd" d="M207.66 29.0202H221.959V10.1982H207.66V29.0202Z" fill="black"/>
</g>
<path fill-rule="evenodd" clip-rule="evenodd" d="M221.541 9.65616H221.395V9.38989H221.541C221.661 9.38989 221.72 9.43078 221.72 9.52112C221.72 9.6148 221.661 9.65616 221.541 9.65616ZM221.971 9.50591C221.971 9.28195 221.815 9.17544 221.555 9.17544H221.142V10.1892H221.395V9.8321H221.526L221.716 10.1892H221.984L221.774 9.79976C221.891 9.75412 221.971 9.66615 221.971 9.50591ZM221.562 10.7812C220.924 10.7812 220.403 10.2881 220.403 9.68232C220.403 9.07606 220.924 8.58345 221.562 8.58345C222.201 8.58345 222.721 9.07606 222.721 9.68232C222.721 10.2881 222.201 10.7812 221.562 10.7812ZM221.562 8.45459C220.848 8.45459 220.268 9.00521 220.268 9.68232C220.268 10.3594 220.848 10.91 221.562 10.91C222.276 10.91 222.857 10.3594 222.857 9.68232C222.857 9.00521 222.276 8.45459 221.562 8.45459Z" fill="black"/>
</svg>
