<svg width="133" height="46" viewBox="0 0 133 46" fill="none" xmlns="http://www.w3.org/2000/svg">
<path d="M22.5746 33.2981C28.3253 33.2981 32.9871 28.6875 32.9871 23C32.9871 17.3125 28.3253 12.7019 22.5746 12.7019C16.8239 12.7019 12.1621 17.3125 12.1621 23C12.1621 28.6875 16.8239 33.2981 22.5746 33.2981Z" fill="black"/>
<path d="M22.4426 15.6008L24.3676 20.7066L29.8363 20.9229L25.5488 24.2979L27.0363 29.5335L22.4426 26.5479L17.8488 29.5335L19.3363 24.2979L15.0488 20.9229L20.5176 20.7066L22.4426 15.6008Z" fill="white"/>
<path d="M37.6687 21.0961H45.1062L45.0188 0.759521H24.9375V8.11529C31.675 8.98067 36.9687 14.3893 37.6687 21.0961Z" fill="black"/>
<path d="M7.61172 25.7258H0.130469C0.174219 25.9854 0.0429688 45.2403 0.0429688 45.2403H20.2117V37.8845C13.7805 37.0624 8.61797 32.0864 7.61172 25.7258Z" fill="black"/>
<path d="M24.9375 37.8845V45.2403H45.0625V25.7258H37.5813C36.5313 32.0864 31.3688 37.0624 24.9375 37.8845Z" fill="black"/>
<path d="M0.0429688 21.0961H7.48047C8.18047 14.3893 13.4742 8.98067 20.2117 8.11529V0.759521H0.0429688V21.0961Z" fill="black"/>
<path d="M57.9238 13.9134C57.9238 13.1345 58.4926 12.572 59.2363 12.572C60.0238 12.572 60.5926 13.1778 60.5926 13.9134C60.5926 14.6489 59.9801 15.2547 59.2363 15.2547C58.5363 15.2547 57.9238 14.6489 57.9238 13.9134ZM58.1863 19.4518C58.1863 19.2355 58.4051 19.0191 58.6238 19.0191H59.9363C60.1551 19.0191 60.3738 19.2355 60.3738 19.4518V27.7595C60.3738 27.9759 60.1551 28.1922 59.9363 28.1922H58.6238C58.4051 28.1922 58.1863 27.9759 58.1863 27.7595V19.4518Z" fill="black"/>
<path d="M63.4355 19.4518C63.4355 19.2355 63.6543 19.0191 63.873 19.0191H64.5293C64.7043 19.0191 64.8355 19.1489 64.923 19.2788L65.1855 20.0576C65.3605 19.8845 66.5855 18.7595 68.4668 18.7595C71.3105 18.7595 72.3605 20.7499 72.3605 23.1297V27.7595C72.3605 27.9759 72.1418 28.1922 71.923 28.1922H70.6105C70.348 28.1922 70.173 27.9759 70.173 27.7595V23.0432C70.173 21.572 69.473 20.7499 68.248 20.7499C66.7605 20.7499 65.798 21.7884 65.6668 22.1345V27.7595C65.6668 28.0624 65.5355 28.1922 65.1418 28.1922H63.873C63.6543 28.1922 63.4355 27.9759 63.4355 27.7595V19.4518Z" fill="black"/>
<path d="M79.1863 18.7594C80.3676 18.7594 81.1988 19.1921 81.4176 19.2786V12.5286C81.4176 12.3123 81.6363 12.0959 81.8551 12.0959H83.2113C83.4301 12.0959 83.6488 12.3123 83.6488 12.5286V27.7594C83.6488 27.9758 83.4301 28.1921 83.2113 28.1921H82.5113C82.2926 28.1921 82.1613 28.019 82.0738 27.8027L81.8988 27.1536C81.8988 27.1536 80.7613 28.4517 78.9238 28.4517C76.4738 28.4517 74.5488 26.245 74.5488 23.6056C74.5926 20.9229 76.6051 18.7594 79.1863 18.7594ZM79.2301 26.4613C80.6301 26.4613 81.3301 25.3363 81.4613 25.0767V21.3123C81.4613 21.3123 80.6301 20.7498 79.4488 20.7498C77.8738 20.7498 76.7801 22.0046 76.7801 23.5623C76.7363 25.1633 77.7426 26.4613 79.2301 26.4613Z" fill="black"/>
<path d="M85.399 19.5816C85.2678 19.2787 85.4428 18.9758 85.7928 18.9758H87.324C87.4553 18.9758 87.6303 19.1056 87.7178 19.2354L90.6053 25.3797H90.649L93.449 19.2354C93.5365 19.0191 93.7115 18.9758 93.9303 18.9758H95.2428C95.6365 18.9758 95.8115 19.2787 95.6365 19.5816L88.5053 34.8124C88.4178 34.9422 88.2865 35.072 88.1115 35.072H86.7115C86.3615 35.072 86.1428 34.7691 86.3178 34.4662L89.424 27.846L85.399 19.5816Z" fill="black"/>
<path d="M98.2613 25.2498C99.1801 25.2498 99.8801 25.9853 99.8801 26.8507C99.8801 27.7161 99.1363 28.4517 98.2613 28.4517C97.3863 28.4517 96.6426 27.7161 96.6426 26.8507C96.6426 25.9421 97.3863 25.2498 98.2613 25.2498Z" fill="black"/>
<path d="M103.162 25.0336C103.162 25.0336 102.462 24.1682 102.462 22.7836C102.462 20.6201 104.08 18.7595 106.487 18.7595H110.555C110.818 18.7595 110.993 18.9326 110.993 19.1922V19.7547C110.993 19.9278 110.905 20.1441 110.73 20.1441L109.462 20.4903C109.462 20.4903 110.468 21.2259 110.468 22.9566C110.468 24.9038 108.937 26.7211 106.53 26.7211C105.349 26.7211 104.693 26.3316 104.518 26.3316C104.343 26.3316 103.555 26.7211 103.555 27.4566C103.555 27.9759 103.993 28.4086 104.693 28.4086H107.843C109.855 28.4086 111.518 29.4903 111.518 31.4807C111.518 33.5143 109.637 35.2884 106.574 35.2884C103.293 35.2884 101.98 33.6441 101.98 32.1297C101.98 30.7451 103.118 30.0961 103.337 29.9663V29.8797C102.855 29.7499 101.63 29.1009 101.63 27.5864C101.499 25.8989 103.162 25.0336 103.162 25.0336ZM106.443 33.4711C107.843 33.4711 109.112 32.7355 109.112 31.6538C109.112 31.2643 108.893 30.3557 107.362 30.3557C106.705 30.3557 106.005 30.3557 105.305 30.3989C105.174 30.4422 104.037 30.8316 104.037 31.8701C104.037 32.7788 105.043 33.4711 106.443 33.4711ZM108.455 22.8701C108.455 21.6153 107.668 20.7499 106.487 20.7499C105.305 20.7499 104.43 21.6153 104.43 22.8701C104.43 24.1249 105.305 24.9903 106.487 24.9903C107.668 24.947 108.455 24.0816 108.455 22.8701Z" fill="black"/>
<path d="M117.161 18.7595C119.786 18.7595 121.886 20.9663 121.886 23.5624C121.886 26.2018 119.786 28.4086 117.161 28.4086C114.536 28.4086 112.436 26.2018 112.436 23.5624C112.436 20.9663 114.536 18.7595 117.161 18.7595ZM117.161 26.4614C118.648 26.4614 119.786 25.1634 119.786 23.5624C119.786 22.0047 118.604 20.7499 117.161 20.7499C115.673 20.7499 114.536 22.0047 114.536 23.5624C114.536 25.1634 115.673 26.4614 117.161 26.4614Z" fill="black"/>
<path d="M122.937 19.5383C122.805 19.2354 122.937 19.019 123.287 19.019H124.643C124.862 19.019 124.993 19.1489 125.08 19.2787L127.487 24.7306H127.53L130.024 19.2787C130.155 19.019 130.418 19.019 130.637 19.019H131.687C132.037 19.019 132.168 19.2354 132.037 19.5383L127.924 28.2354C127.88 28.3652 127.749 28.4517 127.53 28.4517H127.399C127.18 28.4517 127.049 28.3219 127.005 28.2354L122.937 19.5383Z" fill="black"/>
</svg>
