<svg width="161" height="30" viewBox="0 0 161 30" fill="none" xmlns="http://www.w3.org/2000/svg">
<mask id="mask0_1235_787" style="mask-type:luminance" maskUnits="userSpaceOnUse" x="0" y="0" width="161" height="30">
<path d="M161 0.697998H0V29.3021H161V0.697998Z" fill="white"/>
</mask>
<g mask="url(#mask0_1235_787)">
<path d="M0.978516 28.7212V3.12061H5.98096C6.64866 3.12061 7.19009 3.66204 7.19009 4.32974V23.3318H16.4292V28.7212H0.978516Z" fill="black"/>
<path d="M25.2087 4.96268C25.2115 5.40604 25.118 5.84491 24.9349 6.24864C24.7624 6.63561 24.5177 6.9858 24.2132 7.28043C23.8982 7.57505 23.53 7.80756 23.1287 7.9657C22.7087 8.13446 22.2596 8.22068 21.8068 8.21987C20.9033 8.24275 20.0301 7.89623 19.3881 7.2604C18.7556 6.66462 18.4017 5.83143 18.4123 4.96268C18.4119 4.53444 18.4982 4.11069 18.6665 3.71718C18.834 3.32203 19.0858 2.96857 19.4041 2.68089C19.7265 2.38872 20.0939 2.15049 20.4927 1.9756C20.9127 1.79621 21.3659 1.7059 21.8228 1.70958C22.2755 1.70835 22.7246 1.79458 23.1451 1.96375C23.5464 2.12189 23.9141 2.3544 24.2292 2.64902C24.5336 2.94323 24.7788 3.29384 24.9508 3.68081C25.1282 4.08454 25.216 4.52177 25.2087 4.96268ZM18.8439 28.7212V10.715H24.7735V28.7212H18.8439Z" fill="black"/>
<path d="M40.6751 5.76094C40.4263 5.68085 40.1717 5.62037 39.9134 5.57951C39.627 5.53007 39.3373 5.50432 39.0467 5.5031C38.5829 5.48267 38.122 5.58278 37.7085 5.79322C37.375 5.97588 37.0968 6.24476 36.9023 6.57125C36.7016 6.91042 36.5651 7.2835 36.4989 7.67169C36.4282 8.07092 36.3919 8.47547 36.3902 8.88083V10.6911H40.4214V15.1251H36.3902V28.7214H30.477V15.1251H27.1875V10.7152H30.477V8.97767C30.4717 7.91238 30.5934 6.84994 30.8394 5.81325C31.0605 4.85419 31.4851 3.95357 32.0853 3.17309C32.7195 2.38362 33.5392 1.76291 34.4713 1.36736C35.6592 0.885176 36.9349 0.657161 38.2164 0.698023C38.7174 0.697206 39.2184 0.726628 39.7157 0.786696C40.1754 0.840635 40.6298 0.932168 41.0744 1.06089L40.6751 5.76094Z" fill="black"/>
<path d="M60.2311 19.9337V20.6594C60.2315 20.8882 60.2196 21.1171 60.1947 21.3447H47.1382C47.1815 21.8313 47.3359 22.3017 47.5897 22.7193C47.8459 23.1328 48.1785 23.4941 48.5692 23.7834C48.9729 24.0915 49.4253 24.3297 49.9074 24.4891C50.4019 24.6586 50.9208 24.7445 51.4435 24.7428C52.2701 24.7694 53.0903 24.5892 53.8299 24.219C54.4555 23.8925 54.9994 23.4295 55.4219 22.8644L59.5417 25.4685C58.6987 26.6895 57.5451 27.6637 56.1999 28.2901C54.6827 28.9807 53.0294 29.3207 51.363 29.286C50.0586 29.2921 48.7625 29.078 47.5292 28.653C46.363 28.2521 45.2875 27.6249 44.3648 26.8068C43.4458 25.9793 42.718 24.961 42.2326 23.8238C41.6964 22.5485 41.4312 21.1759 41.4545 19.7927C41.4361 18.4238 41.694 17.0651 42.2125 15.7979C43.1589 13.4957 45.0231 11.6928 47.356 10.8237C48.5794 10.3566 49.8797 10.1225 51.1893 10.1343C52.4385 10.1212 53.6783 10.3484 54.8416 10.8037C55.9253 11.2393 56.9007 11.9065 57.6996 12.7585C58.5214 13.6477 59.1547 14.6942 59.5617 15.8343C60.0239 17.1509 60.2503 18.5386 60.2311 19.9337ZM54.7689 17.6564C54.7865 16.7676 54.4702 15.9046 53.8822 15.2377C53.2938 14.5632 52.4083 14.2259 51.2257 14.2259C50.6765 14.2169 50.1297 14.3085 49.6132 14.496C49.1507 14.666 48.722 14.9173 48.3477 15.2377C47.9914 15.5474 47.6972 15.9226 47.481 16.3422C47.2665 16.7504 47.1427 17.1999 47.1181 17.6605L54.7689 17.6564Z" fill="black"/>
<path d="M70.1714 15.125V22.03C70.1236 22.7022 70.2964 23.3715 70.6634 23.9366C70.9858 24.36 71.5701 24.5696 72.4168 24.5696C72.7245 24.57 73.0318 24.5459 73.3358 24.4969C73.6129 24.4617 73.8838 24.3898 74.142 24.2832L74.2266 28.6126C73.7191 28.7814 73.1989 28.908 72.6706 28.9914C72.0507 29.1005 71.4222 29.1557 70.7925 29.1569C69.7603 29.183 68.7318 29.029 67.7531 28.7013C66.9886 28.443 66.3029 27.9935 65.7614 27.3953C65.2601 26.8118 64.896 26.1232 64.6974 25.3799C64.4706 24.5226 64.3607 23.6383 64.3709 22.7516V15.125H61.4766V10.715H64.3345V4.82178H68.9459C69.2667 4.82178 69.5744 4.94886 69.8012 5.17565C70.0279 5.40244 70.1554 5.71014 70.1554 6.03091V10.715H74.388V15.125H70.1714Z" fill="black"/>
<path d="M95.7956 19.6435C95.8128 21.0186 95.5382 22.3814 94.9894 23.6424C94.4888 24.7955 93.7496 25.8302 92.8208 26.6777C91.8928 27.5182 90.8136 28.1749 89.6404 28.6125C87.1478 29.5315 84.4096 29.5315 81.9169 28.6125C80.7413 28.1806 79.6609 27.5231 78.7366 26.6777C77.8204 25.8241 77.0906 24.791 76.5921 23.6424C76.0453 22.3809 75.7707 21.0182 75.7858 19.6435C75.7695 18.2767 76.0445 16.9217 76.5921 15.6692C77.0935 14.5295 77.8265 13.5067 78.7447 12.6658C79.6686 11.8338 80.7503 11.1951 81.9251 10.7873C84.4259 9.91693 87.1474 9.91693 89.6486 10.7873C90.821 11.2008 91.901 11.8387 92.829 12.6658C93.757 13.5014 94.4962 14.5254 94.9976 15.6692C95.5443 16.9217 95.8164 18.2771 95.7956 19.6435ZM90.0838 19.6435C90.0817 19.0657 89.9837 18.4924 89.7937 17.9465C89.6106 17.4091 89.3274 16.9114 88.9592 16.4791C88.587 16.05 88.1318 15.7003 87.621 15.4514C86.449 14.9194 85.1042 14.9194 83.9323 15.4514C83.4272 15.6994 82.9781 16.0496 82.6144 16.4791C82.2528 16.9114 81.979 17.41 81.8082 17.9465C81.4425 19.0498 81.4425 20.2414 81.8082 21.3447C81.9807 21.8906 82.254 22.3993 82.6144 22.8443C83.8644 24.2807 85.9145 24.7163 87.641 23.9125C88.1665 23.6579 88.6287 23.2905 88.9956 22.8362C89.3552 22.3907 89.6286 21.8824 89.8014 21.3365C89.9845 20.7906 90.0797 20.2193 90.0838 19.6435Z" fill="black"/>
<path d="M110.101 28.7213V26.2263H110.029C109.801 26.6504 109.515 27.0398 109.178 27.3831C108.816 27.7545 108.402 28.0712 107.948 28.3225C107.456 28.5979 106.934 28.817 106.393 28.9755C105.812 29.1467 105.209 29.2325 104.603 29.2293C103.547 29.2624 102.498 29.0384 101.547 28.5763C100.759 28.1734 100.07 27.5992 99.5318 26.8956C99.0047 26.1952 98.6235 25.3959 98.4114 24.5456C98.1809 23.6662 98.0645 22.7615 98.0645 21.8527V10.7151H104.055V20.4781C104.054 20.9623 104.089 21.4461 104.16 21.9254C104.219 22.3557 104.356 22.7725 104.562 23.1546C104.752 23.5027 105.03 23.7949 105.369 24.0013C105.777 24.2252 106.238 24.3327 106.703 24.3114C107.639 24.3596 108.535 23.9224 109.073 23.1546C109.621 22.3578 109.903 21.4085 109.88 20.4417V10.7151H115.809V28.7213H110.101Z" fill="black"/>
<path d="M131.466 16.5357C131.101 16.0789 130.628 15.7189 130.091 15.488C129.538 15.226 128.934 15.0883 128.322 15.0847C127.733 15.0773 127.15 15.2068 126.62 15.4635C126.124 15.7119 125.681 16.0556 125.318 16.4752C124.951 16.91 124.664 17.4069 124.472 17.9426C124.263 18.5094 124.158 19.1084 124.161 19.7124C124.158 20.3155 124.256 20.9154 124.452 21.4858C124.635 22.0256 124.924 22.5229 125.302 22.9491C125.67 23.3709 126.122 23.7112 126.629 23.9491C127.179 24.1979 127.778 24.3221 128.382 24.3115C128.995 24.3087 129.602 24.191 130.172 23.965C130.725 23.7631 131.217 23.4215 131.599 22.9733L134.892 27.0044C134.063 27.7763 133.075 28.3569 131.998 28.7055C130.787 29.1088 129.517 29.305 128.241 29.2862C126.886 29.2972 125.539 29.0761 124.258 28.6328C123.066 28.2246 121.969 27.5789 121.033 26.7343C120.115 25.8892 119.384 24.8607 118.889 23.7153C118.349 22.4412 118.082 21.0678 118.107 19.6842C118.087 18.319 118.353 16.9652 118.889 15.7095C119.384 14.5641 120.115 13.5355 121.033 12.6905C121.97 11.8426 123.066 11.19 124.258 10.7716C125.525 10.3209 126.86 10.0945 128.205 10.1022C128.854 10.1022 129.502 10.1631 130.14 10.2837C130.765 10.4005 131.381 10.5636 131.982 10.7716C132.545 10.9677 133.085 11.2231 133.594 11.5333C134.061 11.8115 134.492 12.1446 134.88 12.525L131.466 16.5357Z" fill="black"/>
<path d="M148.953 28.7214V18.9585C148.954 18.4742 148.918 17.99 148.844 17.5115C148.787 17.0865 148.65 16.6763 148.441 16.302C148.247 15.9607 147.969 15.6739 147.635 15.4675C147.236 15.2497 146.787 15.1439 146.333 15.1615C145.404 15.1137 144.511 15.5268 143.946 16.266C143.373 17.0575 143.081 18.0182 143.116 18.9948V28.7214H137.162V1.3833H141.879C142.546 1.3833 143.088 1.92473 143.088 2.59244V12.9925H143.156C143.637 12.1969 144.307 11.532 145.107 11.0576C146.078 10.4696 147.198 10.1741 148.332 10.2072C149.399 10.1721 150.459 10.396 151.42 10.8602C152.21 11.2611 152.899 11.8356 153.435 12.5413C153.962 13.2479 154.343 14.052 154.556 14.9073C154.783 15.7814 154.897 16.6808 154.899 17.5838V28.7214H148.953Z" fill="black"/>
<path d="M156.801 27.1453C156.799 26.932 156.842 26.7208 156.926 26.5246C157.006 26.3367 157.121 26.1659 157.264 26.0208C157.412 25.8782 157.584 25.7634 157.772 25.682C158.169 25.5178 158.614 25.5178 159.01 25.682C159.198 25.7634 159.371 25.8782 159.518 26.0208C159.816 26.3195 159.985 26.7232 159.99 27.1453C159.988 27.5658 159.818 27.9675 159.518 28.2621C159.372 28.4064 159.199 28.5212 159.01 28.6009C158.613 28.7619 158.169 28.7619 157.772 28.6009C157.583 28.5212 157.411 28.4064 157.264 28.2621C157.119 28.1195 157.002 27.9495 156.922 27.7624C156.838 27.5675 156.797 27.3574 156.801 27.1453ZM157.051 27.1453C157.051 27.3227 157.086 27.4984 157.156 27.6614C157.224 27.8212 157.321 27.9675 157.442 28.093C157.566 28.2139 157.711 28.312 157.869 28.3831C158.206 28.5224 158.584 28.5224 158.921 28.3831C159.08 28.3128 159.225 28.2147 159.348 28.093C159.471 27.9687 159.568 27.822 159.635 27.6614C159.704 27.4984 159.74 27.3227 159.74 27.1453C159.74 26.9655 159.704 26.7874 159.635 26.6215C159.567 26.4633 159.471 26.3195 159.348 26.1981C158.96 25.8108 158.376 25.6959 157.869 25.908C157.549 26.0457 157.293 26.3011 157.156 26.6215C157.086 26.7886 157.05 26.9684 157.051 27.1494V27.1453ZM157.772 26.2386H158.401C158.484 26.2398 158.566 26.2492 158.647 26.2668C158.724 26.2835 158.796 26.315 158.861 26.3595C158.925 26.3984 158.976 26.4544 159.01 26.5205C159.051 26.5945 159.071 26.6783 159.066 26.7625C159.072 26.8785 159.033 26.9925 158.958 27.0812C158.877 27.1666 158.771 27.2246 158.655 27.2463L159.139 28.0525H158.736L158.325 27.2704H158.095V28.0362H157.772V26.2386ZM158.353 27.0448C158.444 27.0456 158.535 27.0281 158.619 26.9925C158.705 26.9557 158.757 26.8675 158.748 26.7747C158.755 26.6905 158.708 26.6113 158.631 26.5769C158.554 26.5451 158.472 26.5283 158.389 26.5287H158.095V27.0448H158.353Z" fill="black"/>
</g>
</svg>
