<svg width="179" height="36" viewBox="0 0 179 36" fill="none" xmlns="http://www.w3.org/2000/svg">
<path d="M1.80273 1.51929H177.237V34.6167H1.80273V1.51929Z" fill="white"/>
<path d="M12.9141 9.91284H18.5672V21.3672H26.5153V25.9489H12.9141V9.91284ZM27.7974 9.91284H33.4483V25.9489H27.7974V9.91284ZM34.1988 9.91284H40.5272L43.8124 18.9162L47.0975 9.91284H53.3323L46.4701 26.0635H41.0588L34.1988 9.91284ZM53.5491 9.91284H67.9625V14.3107H59.1064V15.9374H67.3671V19.8096H59.1064V21.551H68.0925V25.9489H53.5491V9.91284Z" fill="black"/>
<path d="M74.7852 9.91284H80.0756L86.0914 16.9909V9.91284H91.6898V25.9489H86.6709L80.3904 18.5485V25.9489H74.7852V9.91284Z" fill="black"/>
<path d="M98.5566 9.79791H104.162L111.289 25.9486H105.15L104.258 23.8005H98.3398L97.4707 25.9529H91.4297L98.5566 9.79791ZM102.868 19.9932L101.324 16.0994L99.7771 19.9932H102.868ZM112.206 14.4489H107.23V9.90607H122.837V14.4489H117.859V25.9486H112.206V14.4489ZM123.681 9.91256H129.332V25.9486H123.681V9.91256ZM130.445 17.9771V17.9317C130.445 13.2807 134.481 9.5686 139.698 9.5686C144.915 9.5686 148.903 13.2461 148.903 17.8841V17.9317C148.903 22.5804 144.867 26.2925 139.65 26.2925C134.433 26.2925 130.445 22.6259 130.445 17.9771ZM143.202 17.9771V17.9317C143.202 16.0302 141.833 14.3104 139.65 14.3104C137.467 14.3104 136.148 16.0064 136.148 17.8841V17.9317C136.148 19.8331 137.517 21.5507 139.698 21.5507C141.879 21.5507 143.202 19.8548 143.202 17.9771ZM149.483 9.91256H154.773L160.789 16.9907V9.91256H166.394V25.9486H161.375L155.088 18.5482V25.9486H149.483V9.91256Z" fill="black"/>
<path d="M178.643 35.9948H0.357422V0.00512695H178.643V35.9948ZM4.10564 32.4406H174.893V3.55283H4.10564V32.4406Z" fill="black"/>
<path d="M169.158 11.1566C169.158 10.8216 169.299 10.5003 169.548 10.2633C169.798 10.0264 170.137 9.89331 170.49 9.89331C170.844 9.89331 171.183 10.0264 171.433 10.2633C171.682 10.5003 171.823 10.8216 171.823 11.1566C171.823 11.4917 171.682 11.813 171.433 12.0499C171.183 12.2869 170.844 12.42 170.49 12.42C170.137 12.42 169.798 12.2869 169.548 12.0499C169.299 11.813 169.158 11.4917 169.158 11.1566ZM171.668 11.1566C171.668 10.8606 171.544 10.5767 171.323 10.3673C171.102 10.158 170.803 10.0404 170.49 10.0404C170.178 10.0404 169.879 10.158 169.658 10.3673C169.437 10.5767 169.313 10.8606 169.313 11.1566C169.313 11.4527 169.437 11.7366 169.658 11.9459C169.879 12.1553 170.178 12.2729 170.49 12.2729C170.803 12.2729 171.102 12.1553 171.323 11.9459C171.544 11.7366 171.668 11.4527 171.668 11.1566ZM169.938 10.4406H170.566C170.645 10.4358 170.725 10.4463 170.801 10.4716C170.876 10.4969 170.945 10.5364 171.004 10.5877C171.043 10.6264 171.074 10.6722 171.094 10.7223C171.115 10.7725 171.124 10.826 171.122 10.8797C171.126 10.9711 171.098 11.0611 171.043 11.1361C170.988 11.211 170.908 11.2669 170.817 11.2951L171.163 11.7753H170.798L170.497 11.3427H170.251V11.7753H169.938V10.4406ZM170.563 11.0896C170.721 11.0896 170.805 11.0095 170.805 10.8992C170.805 10.7716 170.71 10.7045 170.557 10.7045H170.251V11.0982L170.563 11.0896Z" fill="black"/>
</svg>
