<svg width="113" height="32" viewBox="0 0 113 32" fill="none" xmlns="http://www.w3.org/2000/svg">
<path d="M73.5601 30.8612H88.7434L94.3475 18.28V5.92615H98.1323V30.8612H112.214V1.02088H86.733L73.5601 30.8612ZM0.785156 30.8612H15.0585V5.88066H18.8905V18.8706L24.4466 30.8612H39.3428L32.2545 17.8257C34.3625 15.9634 35.0326 14.4643 35.0326 11.2849C35.0326 2.97345 32.3985 1.02015 24.5905 1.02015H0.785156V30.8612ZM55.2807 5.55413H59.2566V14.0475H74.1049C74.1536 13.2301 74.1049 12.5037 74.1049 12.1397C74.1049 2.19271 70.9438 0.421387 57.5325 0.421387C42.6363 0.421387 40.4324 3.05563 40.4324 13.6381C40.4324 29.4898 41.1513 31.5789 57.5325 31.5789C72.1417 31.5789 73.9137 29.1266 74.1049 17.8169H59.2566V26.5826H55.2807V5.55413Z" fill="black"/>
</svg>
