<svg width="145" height="54" viewBox="0 0 145 54" fill="none" xmlns="http://www.w3.org/2000/svg">
<path d="M47.2428 5.41389C42.9993 8.37631 39.4693 10.8489 39.4078 10.9189C39.334 11.0005 41.9538 12.8666 47.0952 16.4005C51.3878 19.3513 54.9548 21.7772 55.0163 21.8005C55.1024 21.8238 77.648 6.27696 80.3048 4.37588L80.6738 4.09596L85.3478 7.37329C87.9061 9.18106 90.1078 10.7323 90.2185 10.8489C90.4153 11.0238 90.1324 11.2454 85.6799 14.3012C83.0723 16.0973 80.8706 17.6018 80.7968 17.6368C80.723 17.6834 79.1117 16.6454 77.2175 15.3392C75.3234 14.0212 73.6875 12.9716 73.5891 12.9949C73.3308 13.0532 70.7601 14.8143 70.7601 14.931C70.7601 15.0942 80.6246 21.8355 80.7722 21.7888C81.0059 21.6955 96.4053 11.0938 96.4299 11.0005C96.4422 10.9305 80.9813 0.130518 80.7353 0.0372143C80.6861 0.0255508 74.8929 3.991 67.8697 8.86616L55.0778 17.7184L54.4505 17.2986C48.3129 13.1465 45.3363 11.0238 45.4593 10.8955C45.5454 10.8256 47.7348 9.26271 50.3423 7.4316L55.0778 4.10763L55.4468 4.37588C55.6436 4.51583 57.2426 5.64715 58.9769 6.88344L62.1379 9.12275L63.5278 8.16638C64.2904 7.64154 64.9669 7.17502 65.0161 7.12836C65.1145 7.04672 55.4714 0.188835 55.127 0.0838661C55.0286 0.0605412 51.4862 2.45147 47.2428 5.41389Z" fill="black"/>
<path d="M140.624 31.4692C139.394 32.0874 138.804 33.4053 139.197 34.6649C139.578 35.9362 140.624 36.671 142.026 36.6593C143.711 36.6476 144.929 35.458 144.929 33.8252C144.929 33.242 144.486 32.274 144.056 31.8891C143.158 31.1077 141.706 30.9327 140.624 31.4692ZM143.084 31.7958C144.179 32.3323 144.634 33.7202 144.031 34.6999C143.133 36.2044 141.177 36.356 140.144 35.0031C139.468 34.1167 139.542 33.1254 140.353 32.2973C141.104 31.5509 142.161 31.3526 143.084 31.7958Z" fill="black"/>
<path d="M140.992 33.8952V35.4697H141.3C141.583 35.4697 141.607 35.4347 141.607 34.8866C141.607 34.4434 141.656 34.3034 141.792 34.3034C141.89 34.3034 142.111 34.56 142.284 34.8866C142.53 35.3531 142.653 35.4697 142.911 35.4697C143.182 35.4697 143.206 35.4464 143.071 35.2015C142.985 35.0615 142.825 34.8049 142.702 34.63C142.468 34.3267 142.468 34.3267 142.837 33.9769C143.305 33.522 143.329 33.0088 142.899 32.6123C142.64 32.3557 142.493 32.3207 141.792 32.3207H140.992V33.8952Z" fill="black"/>
<path d="M88.5325 31.8659C84.9409 32.3208 81.6077 33.872 79.3445 36.1463C78.3113 37.1843 77.6102 38.3156 77.1182 39.6919C76.7492 40.7415 76.7369 40.8465 76.7246 42.8176C76.7246 44.9519 76.7984 45.4068 77.4011 46.923C77.7578 47.8327 78.6803 49.1506 79.5659 49.9904C81.5831 51.9264 84.0799 53.1161 87.4255 53.7459C89.1106 54.0608 93.1326 54.0258 94.8054 53.6876C97.2531 53.186 98.9874 52.4863 100.599 51.3549C102.936 49.6988 104.203 48.0193 104.904 45.6167C105.223 44.5087 105.223 41.3364 104.904 40.1934C104.264 37.9424 103.071 36.3446 100.832 34.7817C98.643 33.2422 97.0932 32.5541 94.7931 32.0875C93.3909 31.8076 89.947 31.6793 88.5325 31.8659ZM92.7759 35.1199C95.0022 35.3765 96.3429 35.8897 98.0526 37.1027C99.7008 38.2923 100.574 39.4703 101.029 41.1614C101.632 43.4124 100.955 46.0832 99.3318 47.821C98.1879 49.0573 96.1461 50.037 93.8706 50.4569C91.5336 50.8768 87.8929 50.6085 85.9987 49.8737C82.3456 48.4742 80.2916 45.2668 80.8451 41.8146C81.2387 39.342 82.8499 37.4292 85.5805 36.1696C87.7699 35.1666 90.1561 34.8167 92.7759 35.1199Z" fill="black"/>
<path d="M8.58397 32.0407C5.263 32.4139 3.87312 32.8805 2.63083 34.0584C1.29015 35.3297 0.699755 37.0209 0.994952 38.7936C1.17945 39.89 1.57305 40.6481 2.31104 41.2895C3.71322 42.5142 6.1363 43.0273 13.1964 43.5755C17.526 43.9254 18.5346 44.0654 19.5923 44.5202C21.6956 45.4066 22.04 47.5759 20.2934 48.9289C19.1127 49.8502 17.3169 50.3634 14.8077 50.5034C10.7733 50.725 7.29248 50.0252 3.54102 48.2291L2.06504 47.5293L1.04415 48.7889C0.478358 49.4887 0.0355625 50.1302 0.0724621 50.2118C0.24466 50.6433 2.88913 51.9729 4.74641 52.5561C7.25558 53.3492 9.65406 53.6641 13.1226 53.6641C17.6121 53.6641 20.5148 53.0109 22.7534 51.4947C24.6476 50.2118 25.5578 47.9725 25.1396 45.6749C24.6107 42.8174 22.0031 41.2662 16.7634 40.6714C15.9147 40.5781 13.959 40.4148 12.3969 40.3098C7.04648 39.9716 5.5459 39.5984 4.95551 38.5021C4.13142 36.9625 5.3491 35.7379 8.27647 35.1431C9.77705 34.8515 13.2825 34.8865 14.9922 35.2131C16.6404 35.528 18.5715 36.1228 20.2565 36.8226L21.4988 37.3474L22.6304 36.2044C23.2577 35.5746 23.762 35.0381 23.7743 35.0031C23.7743 34.8865 21.7079 33.8368 20.6378 33.417C19.2726 32.8921 17.2185 32.3906 15.4227 32.1574C14.1681 31.9824 9.74015 31.9241 8.58397 32.0407Z" fill="black"/>
<path d="M30.1719 42.8761V53.4312H32.0784H33.9848V42.8761V32.321H32.0784H30.1719V42.8761Z" fill="black"/>
<path d="M40.748 42.8761V53.4312H42.6545H44.561L44.5856 44.8588L44.6225 36.2864L50.2558 43.051C53.3677 46.7715 55.9384 49.8389 55.9876 49.8739C56.0368 49.8972 58.6198 46.8765 61.7316 43.1443L67.3773 36.3681L67.4142 44.9054L67.4388 53.4312H69.3452H71.2517V42.8761V32.321L68.8901 32.3443L66.5286 32.3793L61.3503 38.5491C58.4968 41.9547 56.1106 44.7422 56.0491 44.7655C55.9876 44.7772 53.5891 41.9897 50.7109 38.5607L45.4958 32.321H43.1219H40.748V42.8761Z" fill="black"/>
<path d="M110.734 42.8761V53.4312H112.641H114.547L114.572 44.9521L114.609 36.4614L122.911 44.9404L131.214 53.4195L133.588 53.4312H135.949V42.8761V32.321H134.043H132.136L132.112 40.8L132.075 49.2674L123.711 40.8L115.347 32.3443L113.047 32.3326L110.734 32.321V42.8761Z" fill="black"/>
</svg>
