<svg width="125" height="60" viewBox="0 0 125 60" fill="none" xmlns="http://www.w3.org/2000/svg">
<g clip-path="url(#clip0_1216_601)">
<path fill-rule="evenodd" clip-rule="evenodd" d="M63.7981 18.2314C63.9816 17.9632 64.5249 18.1396 64.9059 18.1467C65.428 18.1608 65.301 18.9228 66.0136 18.7746C66.7262 18.6194 66.7403 19.452 67.7563 19.4237C68.7793 19.3955 67.5517 19.7836 67.5517 19.7836C67.5517 19.7836 66.9167 19.4802 66.5075 19.6848C66.2887 19.7906 66.5851 19.6213 66.2252 19.325C65.6678 18.8664 65.7384 19.4096 64.8 18.6124C64.1368 18.0479 63.4948 18.6829 63.7911 18.2384L63.7981 18.2314Z" fill="black"/>
<path d="M56.116 19.2828C55.5093 18.3091 55.9608 17.0885 56.6523 15.9032C57.1532 15.0354 58.5008 14.6473 59.672 15.1059C60.9843 14.0688 61.3018 15.1835 62.466 14.6826C63.997 14.0194 63.1433 16.4394 64.6179 17.0532C65.2318 15.4234 63.2209 14.1958 64.4839 13.4267C65.3799 12.8764 66.0643 12.5377 66.4241 11.8039C66.9462 10.7597 67.1509 9.99067 67.5601 9.85662C68.4914 9.53912 68.2938 8.65013 68.2938 8.65013C68.2938 8.65013 69.2887 8.9394 70.0577 8.21269C69.4721 7.89519 68.6113 7.62002 68.8371 6.99208C69.1052 6.2442 71.1019 7.76113 71.6875 6.54053C70.5022 6.02548 69.2887 4.8966 68.562 4.63555C68.0681 5.17882 67.7506 4.9601 67.1085 4.4521C66.022 3.59133 65.9303 4.40977 65.2529 3.81711C64.7097 4.90365 65.5281 4.81899 65.775 5.09415C66.4735 5.85615 65.0695 4.40977 65.2035 6.35709C65.2388 6.86508 64.4909 6.95681 63.9335 5.85615C63.6443 5.28465 61.3371 5.4046 60.9914 4.86132C61.3089 4.22633 64.0253 1.96151 68.1951 2.50478C62.1414 0.127079 53.95 2.7235 53.8724 3.62661C53.054 4.1346 53.3362 4.72021 52.927 4.86132C52.2214 5.09415 51.4524 7.25314 51.4524 7.25314C51.4524 7.25314 51.8898 7.54947 50.521 9.08051C49.3922 10.3434 49.0605 12.2555 49.0605 12.2555C49.0605 12.2555 49.8084 13.6172 49.6673 15.1906C49.5615 16.39 49.5121 15.501 50.0271 16.3688C50.3305 16.8768 50.6621 18.6548 50.8668 17.9634C51.2548 16.644 50.1612 15.4164 50.3446 14.104C50.387 14.2663 50.7609 13.5819 50.7468 14.2028C50.7045 15.8256 52.7435 18.9512 52.7435 18.9512C52.7435 18.9512 51.9815 19.7273 52.7788 19.7273L52.5742 20.207C52.5742 20.207 53.1669 20.1718 53.5478 20.4822C53.9288 20.7926 54.2605 21.1807 54.6062 21.1807H60.4622C60.4622 21.1807 60.8785 19.4027 61.2172 19.0993C61.5558 18.7959 60.5398 19.0993 60.2365 18.7959C59.9331 18.4926 59.7426 19.064 59.5944 19.3604C59.4462 19.6638 59.2557 20.1929 58.7971 20.3411C58.3456 20.4893 57.252 20.5669 57.0262 20.5669C56.8004 20.5669 56.116 19.2757 56.116 19.2757V19.2828Z" fill="black"/>
<path d="M83.5679 38.3113C83.3421 38.0079 83.6032 37.5564 83.6032 37.5564H67.0862L68.9277 39.1651C69.3369 39.3273 69.8379 39.7295 70.0778 40.3504C70.6281 41.8109 69.8096 40.6255 69.8096 42.841C69.8096 44.873 69.2381 44.5413 69.2381 44.5413C69.2381 44.5413 69.1182 46.9402 67.8764 48.4219C67.0862 49.2121 67.7001 49.8753 67.7001 49.8753C67.7001 49.8753 67.4319 50.0235 67.0439 51.7662C66.9169 52.3306 67.6436 53.1984 68.2645 52.9797C68.7302 52.8174 67.1215 52.6622 68.8713 51.9285C69.5415 51.6462 68.9912 51.11 68.9912 51.11C68.9912 51.11 70.1201 51.0254 70.7621 49.3179C71.884 49.4802 71.4677 48.7958 73.7819 48.2949C74.3957 48.1608 74.5227 47.9774 74.4522 47.4059C74.3746 46.8273 75.2071 47.4905 77.5001 45.1481C79.3064 43.2996 78.6572 42.8833 79.9061 42.2201C81.2254 41.5145 81.3454 42.2765 81.7899 41.705C82.7988 40.3927 82.446 40.4774 82.8623 39.6378L83.1587 39.1721C83.1587 39.1721 83.7936 38.6288 83.5679 38.3254V38.3113Z" fill="black"/>
<path d="M72.0195 20.6796C71.9983 20.863 71.8008 20.8983 71.6526 20.8983L71.582 20.5314C71.7655 20.5102 71.8784 20.602 72.0195 20.6796Z" fill="black"/>
<path d="M70.6991 20.3905C70.1135 20.5175 69.4855 20.3905 68.9352 20.8279C68.8999 20.7009 68.7518 20.4822 68.5683 20.5316H68.3496C68.8647 20.1083 68.0533 19.6708 68.9352 19.6497C69.6125 19.6708 70.1135 20.1435 70.6991 20.3834V20.3905Z" fill="black"/>
<path fill-rule="evenodd" clip-rule="evenodd" d="M91.1681 38.9675C87.3652 50.7996 76.6902 60 63.1507 60C48.7998 60 39.1479 50.9196 35.2744 39.2215C39.3102 50.1223 50.2744 57.9327 63.1719 57.9327C76.0694 57.9327 87.21 49.9953 91.1681 38.9605V38.9675ZM35.2109 20.9125C39.028 9.11571 48.059 0 63.1507 0C77.1771 0 87.4852 9.24271 91.2246 21.1736C87.3229 10.0541 76.2387 2.03199 63.1719 2.03199C50.1051 2.03199 39.1902 9.93415 35.2109 20.9196V20.9125Z" fill="black"/>
<path d="M12.6607 23.8052H8.06052L8.75196 24.6236V30.6702C8.75196 32.0319 7.84885 32.6034 6.50831 32.6034C5.16776 32.6034 4.26466 32.0319 4.26466 30.6702V24.6236L4.9561 23.8052H0.341797L1.03324 24.6236V30.769C1.03324 33.7817 2.7195 34.9458 6.50125 34.9458C10.283 34.9458 11.9693 33.7817 11.9693 30.769V24.6236L12.6607 23.8052Z" fill="black"/>
<path d="M28.6351 23.8052H24.7545L25.446 24.6236V30.1269L19.8721 23.8052H16.3867L17.0711 24.6236V33.9087L16.3867 34.7271H20.2672L19.5758 33.9087V28.3066L25.4954 34.7271H27.9507V24.6236L28.6351 23.8052Z" fill="black"/>
<path d="M37.5808 34.7271L36.8964 33.9087V24.6236L37.5808 23.8052H32.9453L33.6368 24.6236V33.9087L32.9453 34.7271H37.5808Z" fill="black"/>
<path d="M52.87 23.8052H48.9683L49.6597 24.6236L46.9081 30.6349L44.2482 24.6236L44.9396 23.8052H40.3535L45.4476 34.7271H47.7265L52.87 23.8052Z" fill="black"/>
<path d="M65.8795 34.7271V31.7638L65.061 32.4552H59.4801V30.3527H63.0149L63.8193 31.0441V27.4881L63.0149 28.1796H59.4801V26.0841H65.061L65.8795 26.7685V23.8052H55.5996L56.284 24.6236V33.9087L55.5996 34.7271H65.8795Z" fill="black"/>
<path fill-rule="evenodd" clip-rule="evenodd" d="M81.5436 34.7271L78.5802 30.4162C80.0407 29.8235 81.0497 28.6946 81.0497 27.1071C81.0497 25.2868 79.9349 23.7981 76.8234 23.7981H70.0078L70.6922 24.6165V33.9016L70.0078 34.72H74.5798L73.8954 33.9016V30.8042H75.2712L77.3667 33.9016L76.6753 34.72H81.5436V34.7271ZM77.7759 27.34C77.7759 28.1231 77.021 28.7652 75.9768 28.7652H73.8954V26.077H76.3648C77.0845 26.077 77.7759 26.4369 77.7759 27.34Z" fill="black"/>
<path d="M95.3787 31.5382C95.3787 29.8026 93.9888 28.836 91.9709 28.1798C90.6586 27.7706 88.81 27.4742 88.81 26.6064C88.81 26.1831 89.318 25.8868 90.2 25.8868C91.3782 25.8868 93.3114 26.3806 94.8213 27.1003V23.4456L93.9535 24.2781C93.0363 23.9042 91.4488 23.5091 90.3481 23.5091C86.6299 23.5091 85.4375 25.1459 85.4375 26.6346C85.4375 28.6666 86.778 29.5486 88.8947 30.2894C90.4681 30.8327 91.9215 30.8821 91.9215 31.7781C91.9215 32.5472 91.0184 32.6459 90.5598 32.6459C89.3956 32.6459 87.3354 32.2367 85.501 31.0373V35.0801L86.3688 34.1276C87.2225 34.4521 89.1346 35.0095 90.708 35.0095C93.9323 35.0095 95.3787 33.5843 95.3787 31.5171V31.5382Z" fill="black"/>
<path fill-rule="evenodd" clip-rule="evenodd" d="M111.72 34.7271L106.35 23.8052H102.667L103.062 24.6236L98.2012 34.7271H102.216L101.531 33.9087L102.075 32.7657H107.282L107.804 33.9087L107.112 34.7271H111.734H111.72ZM106.463 30.7972H102.844L104.643 26.8814L106.463 30.7972Z" fill="black"/>
<path d="M124.66 34.7271V31.7638L123.842 32.4552H118.586V24.6236L119.277 23.8052H114.705L115.389 24.6236V33.9087L114.705 34.7271H124.66Z" fill="black"/>
<path d="M121.747 25.3646C121.747 26.1196 122.36 26.7334 123.115 26.7334C123.87 26.7334 124.484 26.1196 124.484 25.3646C124.484 24.6097 123.87 23.9958 123.115 23.9958C122.36 23.9958 121.747 24.6097 121.747 25.3646ZM121.605 25.3646C121.605 24.5321 122.283 23.8547 123.115 23.8547C123.948 23.8547 124.625 24.5321 124.625 25.3646C124.625 26.1972 123.948 26.8745 123.115 26.8745C122.283 26.8745 121.605 26.1972 121.605 25.3646Z" fill="black"/>
<path fill-rule="evenodd" clip-rule="evenodd" d="M123.687 24.7718C123.539 24.6448 123.355 24.5884 123.165 24.5884C122.72 24.5884 122.389 24.9341 122.389 25.3715C122.389 25.809 122.713 26.1618 123.158 26.1618C123.362 26.1618 123.553 26.0841 123.708 25.9501V25.7525C123.574 25.9219 123.369 26.0206 123.151 26.0206C122.798 26.0206 122.53 25.7102 122.53 25.3715C122.53 25.0329 122.798 24.7295 123.151 24.7295C123.362 24.7295 123.539 24.8142 123.68 24.9764V24.7789L123.687 24.7718Z" fill="black"/>
</g>
<defs>
<clipPath id="clip0_1216_601">
<rect width="124.318" height="60" fill="white" transform="translate(0.341797)"/>
</clipPath>
</defs>
</svg>
