<svg width="191" height="44" viewBox="0 0 191 44" fill="none" xmlns="http://www.w3.org/2000/svg">
<path d="M66.6148 16.9352H71.2744V33.5009C71.2744 36.2044 69.3282 37.8643 66.4089 37.8643H60.5139C57.5946 37.8643 55.6484 36.2233 55.6484 33.5009V16.9352H60.3644V32.9413C60.3644 33.338 60.6831 33.645 61.0949 33.645H65.8844C66.2961 33.645 66.6148 33.338 66.6148 32.9413V16.9352ZM73.277 33.2837H77.9366V37.8265H73.277V33.2837ZM79.9759 24.0729V20.7744C79.9759 18.5761 81.6231 16.9163 84.2041 16.9163H91.0526C93.6361 16.9163 95.2808 18.5573 95.2808 20.7744V23.8391H90.7903V21.6031C90.7903 21.2065 90.4717 20.8995 90.0599 20.8995H85.214C84.8022 20.8995 84.4835 21.2065 84.4835 21.6031V23.6408C84.4835 23.9477 84.6527 24.2169 85.1576 24.3609L92.2683 26.3608C94.494 27.0101 95.2612 28.127 95.2612 30.4716V33.9873C95.2612 36.169 93.5576 37.8454 90.9938 37.8454H84.1453C81.601 37.8454 79.9342 36.169 79.9342 33.9873V30.5991H84.4247V33.1397C84.4247 33.5363 84.7434 33.8433 85.1552 33.8433H90.001C90.4128 33.8433 90.7315 33.5363 90.7315 33.1397V30.9037C90.7315 30.5613 90.506 30.2898 90.0574 30.1835L82.9467 28.1836C80.726 27.5508 79.9759 26.434 79.9759 24.0729ZM97.3054 33.2837H101.965V37.8265H97.3054V33.2837ZM121.78 34.3297H114.128L113.118 37.8454H108.252L114.745 16.9352H121.52L127.751 37.8454H122.792L121.78 34.3297ZM120.64 30.363L117.983 20.9538L115.25 30.363H120.64ZM143.975 29.1918L142.796 30.1481L146.688 37.862H141.448L138.004 30.6699H134.842V37.8431H130.126V16.9328H141.092C143.825 16.9328 145.676 18.5195 145.676 20.9349V25.0079C145.659 27.0645 145.453 28.0207 143.975 29.1918ZM140.943 26.0019V21.7849C140.943 21.3883 140.624 21.0813 140.212 21.0813H134.842V26.7056H140.212C140.624 26.7032 140.943 26.3986 140.943 26.0019ZM162.817 16.9352H168.935V37.8454H164.408V24.6868L159.692 37.8454H158.326L153.63 24.7222V37.8454H149.289V16.9352H155.407L159.15 28.3631L162.817 16.9352ZM190.213 16.9352L182.877 29.86V37.8454H178.161V29.8955L171.031 16.9352H176.57L180.742 25.0835L184.897 16.9352H190.213Z" fill="black"/>
<path d="M47.5675 16.9353H29.6963L24.1763 0.567871L18.6564 16.9353H0.785156L15.2493 27.0646L9.72934 43.4321L24.1935 33.3193L38.6576 43.4321L33.1181 27.0646L47.5675 16.9353ZM24.1763 28.29L17.7396 32.7975L20.1908 25.5157L13.7541 21.0083H21.708L24.1788 13.7265L26.6299 21.0083H34.5838L28.1472 25.5157L30.5983 32.7975L24.1763 28.29Z" fill="black"/>
</svg>
